<ttFont>
          <CharString index="0">
            1018 416 -19 callsubr
            142 77 46 60 vhcurveto
            -45 243 136 293 208 251 83 -26 85 -35 99 -48 42 42 0 54 -67 41 -26 16 -55 27 -74 27 rrcurveto
            273 257 333 204 247 -12 callsubr
            -695 -443 -467 -80 callsubr
            -76 -29 45 74 68 callsubr
            331 489 180 vvcurveto
            64 -45 45 -90 -293 -451 -227 -300 -361 vhcurveto
            19 -86 -93 13 -95 -71 callsubr
            50 47 -2 -3 44 hvcurveto
            -259 -244 -187 -276 -236 vvcurveto
            return
          </CharString>
          <CharString index="1">
            56 -44 callsubr
            112 85 75 65 vhcurveto
            -113 -4 104 -47 112 -92 callsubr
            225 508 68 23 hvcurveto
            0 -113 34 -40 -54 vhcurveto
            -10 -12 rlineto
            16 -22 -37 9 -54 -54 callsubr
            181 227 177 344 3 hvcurveto
            -175 -120 -195 -302 -159 hhcurveto
            return
          </CharString>
          <CharString index="2">
            61 307 rmoveto
            -199 109 -158 222 445 451 878 432 210 -101 87 -210 -242 -410 -123 -194 -56 63 -130 65 45 84 39 28 26 22 callsubr
            50 21 callsubr
            225 53 138 128 83 -31 -128 -284 -376 -625 -255 -132 -56 86 109 37 12 42 14 40 vhcurveto
            -41 12 -44 -6 -28 -25 rrcurveto
            -84 -77 -92 -145 -133 vvcurveto
            return
          </CharString>
          <CharString index="3">
            726 75 279 rmoveto
            -183 88 -118 133 192 226 365 358 192 vhcurveto
            17 -159 104 -74 116 -12 rrcurveto
            -253 -17 27 -265 283 hhcurveto
            305 232 302 220 92 -27 callsubr
            -171 -150 -137 hhcurveto
            -70 -55 111 137 -55 hvcurveto
            238 107 203 226 278 vvcurveto
            287 -233 153 -320 -751 -530 -841 -452 vhcurveto
            339 63 rmoveto
            -130 227 1125 814 hhcurveto
            220 160 -73 -206 -173 -151 -186 -176 -75 hvcurveto
            144 -59 -65 120 -85 hhcurveto
            -32 -48 -22 -31 -46 hvcurveto
            72 139 63 120 49 76 -22 15 -75 45 -35 -60 rrcurveto
            -417 -244 -372 -541 -65 hhcurveto
            755 385 rmoveto
            35 -117 -6 146 92 hhcurveto
            41 0 -74 -107 -10 hvcurveto
            return
          </CharString>
          <CharString index="4">
            56 470 16 callsubr
            -190 322 488 441 484 488 8 -2 8 -3 8 vhcurveto
            62 68 43 86 96 vvcurveto
            250 -198 122 -250 -560 -581 -528 -560 vhcurveto
            418 211 rmoveto
            375 307 392 371 181 73 -75 -140 -152 -144 -131 -136 -69 vhcurveto
            13 -33 48 -59 35 -2 69 -5 83 27 73 49 rrcurveto
            -278 -79 -269 -283 -300 hhcurveto
            -208 -117 126 258 hvcurveto
            return
          </CharString>
          <CharString index="5">
            -81 -33 callsubr
            100 -116 219 vhcurveto
            6 7 1 7 1 2 -1 2 -72 callsubr
            194 -204 142 -243 -47 vhcurveto
            -48 callsubr
            419 47 -64 callsubr
            return
          </CharString>
          <CharString index="6">
            140 374 rmoveto
            -239 202 -162 347 286 298 236 163 22 -49 41 0 vhcurveto
            -1 callsubr
            -193 -125 91 125 271 384 153 385 -134 hvcurveto
            26 -9 41 181 0 vvcurveto
            -190 39 -257 91 156 vvcurveto
            126 320 60 -70 callsubr
            -290 -403 -121 -197 -102 70 -83 95 -62 hvcurveto
            -372 -13 -378 -227 -380 vvcurveto
            return
          </CharString>
          <CharString index="7">
            445 103 271 rmoveto
            -191 116 -100 167 233 219 151 95 68 vhcurveto
            -192 -28 66 -128 181 hhcurveto
            152 197 187 82 19 -26 18 -9 6 hvcurveto
            -64 -37 -60 85 132 314 374 548 251 vvcurveto
            62 -37 19 -63 -8 vhcurveto
            -580 -140 -572 -631 -273 hhcurveto
            -60 -31 40 81 hvcurveto
            217 240 300 272 vvcurveto
            162 -72 111 -113 -37 -20 -25 -33 -8 vhcurveto
            75 -10 31 -57 -81 -376 -506 -361 -342 vvcurveto
            return
          </CharString>
          <CharString index="8">
            467 -103 callsubr
            return
          </CharString>
          <CharString index="9">
            -83 39 78 -41 115 -92 callsubr
            85 362 147 173 hvcurveto
            -20 21 -63 46 -38 -14 -147 -56 -224 -264 -51 -209 rrcurveto
            -30 -50 -55 -3 -46 hhcurveto
            -63 -34 41 75 136 128 170 120 85 hvcurveto
            27 -22 return
          </CharString>
          <CharString index="10">
            256 -101 callsubr
            return
          </CharString>
          <CharString index="11">
            -170 50 325 rmoveto
            -252 195 -83 252 334 240 234 236 98 -8 callsubr
            -107 -160 -85 -169 hhcurveto
            -116 -108 31 73 -39 hvcurveto
            235 27 301 97 222 vvcurveto
            100 -94 46 -100 -367 -360 -278 -282 vhcurveto
            371 161 rmoveto
            143 12 98 149 133 hhcurveto
            50 24 -29 -53 -110 -153 -81 -164 -19 hvcurveto
            return
          </CharString>
          <CharString index="12">
            -93 callsubr
            -105 hhcurveto
            return
          </CharString>
          <CharString index="13">
            -451 49 229 -78 callsubr
            149 -50 callsubr
            -399 60 callsubr
            return
          </CharString>
          <CharString index="14">
            -85 callsubr
            -128 -106 return
          </CharString>
          <CharString index="15">
            -91 callsubr
            -160 return
          </CharString>
          <CharString index="16">
            hhcurveto
            248 227 310 -90 callsubr
            return
          </CharString>
          <CharString index="17">
            4 callsubr
            hvcurveto
            -95 callsubr
            return
          </CharString>
          <CharString index="18">
            24 58 -24 21 -35 -3 return
          </CharString>
          <CharString index="19">
            -89 callsubr
            rrcurveto
            return
          </CharString>
          <CharString index="20">
            rmoveto
            51 166 86 89 108 hvcurveto
            -91 58 89 -83 71 hhcurveto
            -42 callsubr
            -106 209 -33 95 -14 12 -40 3 -19 3 -33 -95 -315 -68 callsubr
          </CharString>
          <CharString index="21">
            -62 22 -28 rmoveto
            -90 -35 -55 -116 -48 vvcurveto
            -157 173 -111 157 211 198 233 274 149 vhcurveto
            215 44 195 158 102 246 -89 callsubr
            -83 -126 -161 -121 -118 -31 93 228 55 219 -4 115 -3 66 -66 9 -63 -24 -2 -40 -4 -41 -7 -42 rrcurveto
            -222 -68 -215 -204 -120 hhcurveto
            -61 -29 63 88 135 136 188 78 59 hvcurveto
            15 -11 -22 15 -24 hhcurveto
            -103 -359 -309 -301 -168 116 -81 129 113 115 68 97 104 hvcurveto
            -188 -118 -140 -136 -102 hhcurveto
            -112 -73 44 61 -91 hvcurveto
            return
          </CharString>
          <CharString index="22">
            -88 callsubr
            -113 -74 return
          </CharString>
          <CharString index="23">
            rmoveto
            51 198 56 52 93 hvcurveto
            -43 67 173 -69 39 hhcurveto
            29 32 26 22 10 hvcurveto
            -65 37 -147 105 -39 45 -14 12 -40 3 -19 3 -92 -60 -222 -85 -102 -50 rrcurveto
            -21 9 18 -33 21 hhcurveto
            endchar
          </CharString>
          <CharString index="24">
            -266 129 306 rmoveto
            50 71 82 127 70 121 59 -13 69 -8 76 -4 rrcurveto
            -160 -88 -127 -156 -135 vvcurveto
            -154 133 -67 154 249 227 310 -16 callsubr
            -106 hhcurveto
            -84 -27 37 56 59 54 76 55 50 hvcurveto
            38 42 74 51 6 hvcurveto
            -148 8 -123 23 -117 57 rrcurveto
            21 46 13 39 23 vvcurveto
            77 -121 21 -48 -39 -131 -144 -76 -62 39 -43 66 -31 vhcurveto
            -38 -101 -67 -119 -145 -101 15 -31 119 -28 19 28 rrcurveto
            return
          </CharString>
          <CharString index="25">
            rmoveto
            76 74 127 37 41 -64 75 -54 -37 -122 -98 -65 -54 63 -63 64 hvcurveto
            -390 hmoveto
            76 83 103 66 42 -90 69 -42 -31 -109 -124 -65 -50 60 -41 53 hvcurveto
            endchar
          </CharString>
          <CharString index="26">
            rmoveto
            68 87 70 34 35 -57 49 -47 -39 -124 -52 -41 -48 56 -47 56 hvcurveto
            -435 hmoveto
            56 106 63 43 39 -79 43 -37 -28 -118 -59 -57 -32 64 -40 36 hvcurveto
            endchar
          </CharString>
          <CharString index="27">
            vvcurveto
            -282 177 -117 194 192 159 171 101 19 -34 38 49 callsubr
            -9 -22 -22 -6 -22 hhcurveto
            return
          </CharString>
          <CharString index="28">
            247 0 callsubr
            2 127 19 124 29 118 rrcurveto
            143 95 228 157 100 hhcurveto
            26 -254 -246 -241 -155 86 -84 139 275 206 323 156 65 8 callsubr
            -129 -105 -96 hhcurveto
            -43 -20 33 55 142 241 352 -172 -193 -228 -122 -138 -142 hvcurveto
            30 84 35 79 35 73 -9 callsubr
            -302 -242 vvcurveto
            return
          </CharString>
          <CharString index="29">
            -11 callsubr
            319 227 316 -16 callsubr
            -105 hhcurveto
            -78 -47 52 68 97 67 return
          </CharString>
          <CharString index="30">
            rmoveto
            111 334 49 66 30 -26 59 -24 14 hvcurveto
            -87 -51 -277 -90 -78 -6 rrcurveto
            -46 4 17 -25 26 hhcurveto
            endchar
          </CharString>
          <CharString index="31">
            rmoveto
            -138 114 -115 161 477 534 1036 648 220 -68 92 -243 -276 -398 -150 -194 -56 107 -102 65 25 46 21 23 21 34 callsubr
            286 77 138 128 56 -50 -128 -241 -143 -311 -166 -249 vhcurveto
            -425 -29 -400 -296 -321 vvcurveto
            385 217 rmoveto
            -94 44 229 72 399 hvcurveto
            -178 -136 -137 -123 -76 hhcurveto
            return
          </CharString>
          <CharString index="32">
            rmoveto
            0 101 95 80 vhcurveto
            97 38 -147 146 hhcurveto
            123 123 137 85 22 -81 37 0 hvcurveto
            0 -39 -57 -58 vhcurveto
            -102 -64 93 -145 hhcurveto
            -119 -109 -97 -104 -47 hvcurveto
            -9 -20 65 -44 61 callsubr
          </CharString>
          <CharString index="33">
            rmoveto
            82 345 219 98 32 -108 71 -37 8 hvcurveto
            -33 -95 -265 -68 callsubr
          </CharString>
          <CharString index="34">
            63 372 rmoveto
            -147 129 -344 303 679 26 1290 401 595 vhcurveto
            -9 29 -35 33 -27 -10 -261 -96 -223 -349 -215 -318 rrcurveto
            412 -43 -177 286 -257 hhcurveto
            -227 -122 -162 -61 110 hvcurveto
            49 34 63 65 104 hhcurveto
            285 67 -622 -399 -173 hvcurveto
            -88 -92 -93 -55 -96 hhcurveto
            -118 -112 74 69 -35 hvcurveto
            -30 -7 -50 -26 -24 vvcurveto
            return
          </CharString>
          <CharString index="35">
            hhcurveto
            497 273 214 252 106 hvcurveto
            -89 callsubr
            -63 -96 -101 -104 -137 -30 rrcurveto
            51 91 28 103 108 vvcurveto
            return
          </CharString>
          <CharString index="36">
            hhcurveto
            -355 -330 -118 -208 -169 253 -54 40 71 59 callsubr
            -97 219 111 274 hhcurveto
            return
          </CharString>
          <CharString index="37">
            128 66 46 -26 -57 -54 -22 -44 -22 -26 vhcurveto
            -19 17 49 -38 35 hhcurveto
            77 60 104 89 120 -111 61 -142 return
          </CharString>
          <CharString index="38">
            6 callsubr
            -101 -47 callsubr
            91 -29 callsubr
            endchar
          </CharString>
          <CharString index="39">
            -227 -64 -44 rrcurveto
            -21 9 54 -41 17 hhcurveto
            endchar
          </CharString>
          <CharString index="40">
            -97 66 callsubr
            -180 58 -69 180 9 callsubr
            2 156 27 150 44 140 rrcurveto
            154 113 256 129 75 hhcurveto
            17 12 -7 -15 -107 -315 -160 -116 -44 hvcurveto
            -36 callsubr
            -33 48 85 -29 hvcurveto
            126 70 175 159 122 vvcurveto
            55 -33 33 -63 -132 -181 -73 -112 -146 vhcurveto
            129 282 183 227 140 139 rrcurveto
            26 -27 -24 10 -25 hhcurveto
            -153 -685 -721 -418 hvcurveto
            return
          </CharString>
          <CharString index="41">
            rmoveto
            -42 callsubr
            -121 221 -33 95 rrcurveto
            -45 -104 -68 -52 -121 195 -180 107 hvcurveto
            endchar
          </CharString>
          <CharString index="42">
            rmoveto
            -57 callsubr
            -186 -332 -369 -790 -107 -85 -14 callsubr
            return
          </CharString>
          <CharString index="43">
            -24 callsubr
            155 82 135 163 45 hvcurveto
            -80 236 -216 -371 -168 hhcurveto
            return
          </CharString>
          <CharString index="44">
            rmoveto
            -66 314 -49 111 26 17 25 46 4 vhcurveto
            -78 6 -257 90 -87 51 rrcurveto
            -24 -14 -26 -59 -30 vvcurveto
            endchar
          </CharString>
          <CharString index="45">
            645 107 189 5 callsubr
            552 861 37 callsubr
            -251 -612 -309 -367 -80 callsubr
            -71 -55 40 88 68 callsubr
            280 176 18 callsubr
            -294 -271 -37 callsubr
            return
          </CharString>
          <CharString index="46">
            516 10 38 rmoveto
            -32 40 166 -38 82 hhcurveto
            103 121 362 392 141 hvcurveto
            25 7 29 10 33 13 rrcurveto
            -184 101 -147 -599 511 hhcurveto
            275 260 239 -4 callsubr
            -282 -8 470 122 -122 hvcurveto
            349 185 403 266 121 vvcurveto
            63 -91 18 -48 7 vhcurveto
            -46 -198 -439 -282 -455 -122 85 220 90 207 98 134 -37 32 -56 13 -28 -25 -170 -157 -534 -1180 -191 -171 rrcurveto
            return
          </CharString>
          <CharString index="47">
            393 105 14 17 callsubr
            -243 -21 callsubr
            92 40 -122 hvcurveto
            41 333 20 1176 465 hhcurveto
            97 46 -79 -78 -177 -226 -195 -210 30 hvcurveto
            -73 -30 47 -138 109 hhcurveto
            196 253 266 265 153 -87 131 -208 -547 -139 -967 -272 -395 hvcurveto
            29 callsubr
            return
          </CharString>
          <CharString index="48">
            54 rmoveto
            -69 12 93 -112 58 hhcurveto
            32 86 22 20 121 hvcurveto
            -50 -73 -33 -70 -57 vvcurveto
            -101 101 -39 166 12 vhcurveto
            15 124 42 122 50 112 rrcurveto
            19 18 1 19 hhcurveto
            83 92 -6 -8 28 hvcurveto
            21 26 14 30 15 vvcurveto
            52 -114 24 -112 2 vhcurveto
            95 176 96 138 63 vvcurveto
            29 -69 47 -28 5 vhcurveto
            -233 -97 -421 -238 -201 -150 rrcurveto
            214 -7 rmoveto
            124 90 281 195 162 63 -33 -71 -117 -123 -108 -129 -146 -9 -136 -14 -27 -2 rrcurveto
            return
          </CharString>
          <CharString index="49">
            rmoveto
            -7 -70 -112 -235 -41 -46 20 callsubr
            108 184 192 109 68 -77 30 -112 -9 hvcurveto
            endchar
          </CharString>
          <CharString index="50">
            227 39 227 159 104 253 -89 callsubr
            -88 -134 -208 -118 -156 -26 55 178 75 206 116 230 -76 39 -50 -20 -33 -59 return
          </CharString>
          <CharString index="51">
            103 259 201 177 72 -55 47 -73 -91 -64 -67 -77 -30 13 -33 21 -21 hvcurveto
            -12 -58 -109 return
          </CharString>
          <CharString index="52">
            rmoveto
            -135 154 -33 139 13 vhcurveto
            8 401 380 333 114 vvcurveto
            29 -45 46 -30 9 vhcurveto
            -157 -101 -348 -106 -66 -21 rrcurveto
            -51 9 31 -62 36 hhcurveto
            41 244 106 67 95 hvcurveto
            -61 -111 -430 -321 -177 vvcurveto
            return
          </CharString>
          <CharString index="53">
            -28 callsubr
            hvcurveto
            -13 callsubr
            return
          </CharString>
          <CharString index="54">
            rmoveto
            -45 15 80 -80 41 hhcurveto
            219 1503 1752 208 18 -44 30 -24 7 hvcurveto
            -391 -574 -1119 -1117 -280 -199 rrcurveto
            return
          </CharString>
          <CharString index="55">
            269 230 319 -90 callsubr
            return
          </CharString>
          <CharString index="56">
            rmoveto
            570 213 397 179 -209 hvcurveto
            103 72 85 93 90 vvcurveto
            99 -88 63 -151 -150 -324 -116 -110 -40 46 -46 28 14 59 25 10 8 vhcurveto
            65 -17 156 103 135 hhcurveto
            64 52 -27 -45 -98 -232 -106 -162 -21 hvcurveto
            -26 25 -111 44 40 60 17 28 63 vhcurveto
            54 -166 -312 -117 -315 17 rrcurveto
            -92 -19 42 -137 118 hhcurveto
            endchar
          </CharString>
          <CharString index="57">
            137 146 hvcurveto
            26 -20 -57 25 -14 hhcurveto
            -110 -375 return
          </CharString>
          <CharString index="58">
            rmoveto
            217 68 299 20 141 -47 52 66 25 99 -87 29 rrcurveto
            -143 48 -249 -15 0 0 582 216 267 vvcurveto
            114 -87 62 -161 -183 -295 -117 -137 -53 79 -34 61 29 36 28 18 12 vhcurveto
            -29 15 -15 23 23 vvcurveto
            60 123 59 113 55 68 -18 -64 -213 -609 -176 -121 -133 vhcurveto
            -49 -54 28 -188 108 34 rrcurveto
            return
          </CharString>
          <CharString index="59">
            -33 -7 -27 -40 4 -38 rrcurveto
            -249 -79 -211 -229 -234 vvcurveto
            return
          </CharString>
          <CharString index="60">
            146 hhcurveto
            123 97 88 64 11 hvcurveto
            4 22 -44 25 0 vvcurveto
            0 -79 -72 -72 vhcurveto
            -102 -67 return
          </CharString>
          <CharString index="61">
            57 503 rmoveto
            -356 63 357 -175 344 hhcurveto
            659 440 548 461 423 -299 184 -530 -323 -480 -109 -306 1 callsubr
            176 335 92 231 387 217 -107 -256 -361 -456 -436 -445 -34 -32 1 3 -32 vhcurveto
            return
          </CharString>
          <CharString index="62">
            26 callsubr
            111 201 -43 callsubr
            return
          </CharString>
          <CharString index="63">
            -33 callsubr
            39 callsubr
            168 157 return
          </CharString>
          <CharString index="64">
            90 13 callsubr
            -161 -136 -111 -107 vhcurveto
            return
          </CharString>
          <CharString index="65">
            17 39 40 21 9 hvcurveto
            -64 44 return
          </CharString>
          <CharString index="66">
            24 callsubr
            533 435 430 398 243 -168 130 -273 36 callsubr
            vhcurveto
            174 52 rmoveto
            35 callsubr
            212 118 -113 -173 -352 -374 -331 -353 -229 -196 100 226 vhcurveto
            return
          </CharString>
          <CharString index="67">
            91 64 67 77 30 -13 33 -21 21 hvcurveto
            12 58 109 123 49 49 rrcurveto
            17 -5 -39 22 -13 hhcurveto
            -103 -259 -201 -177 -72 55 -47 73 hvcurveto
            return
          </CharString>
          <CharString index="68">
            224 313 19 51 118 hvcurveto
            67 callsubr
            63 19 callsubr
            return
          </CharString>
          <CharString index="69">
            -32 callsubr
            -120 -49 -52 rrcurveto
            return
          </CharString>
          <CharString index="70">
            -357 -282 vhcurveto
            401 174 -84 282 -185 hhcurveto
            -46 -24 -22 -45 -2 hvcurveto
            68 -3 17 -72 -117 -272 -412 -539 -354 vvcurveto
            return
          </CharString>
          <CharString index="71">
            -164 4 1 -281 206 hhcurveto
            -52 callsubr
            -72 return
          </CharString>
          <CharString index="72">
            rmoveto
            -39 callsubr
            52 callsubr
            29 -82 174 hhcurveto
            return
          </CharString>
          <CharString index="73">
            rmoveto
            -80 79 -54 80 95 128 110 83 74 -111 64 -48 -72 -151 -107 -90 vhcurveto
            return
          </CharString>
          <CharString index="74">
            -6 callsubr
            -160 return
          </CharString>
          <CharString index="75">
            -7 callsubr
            -56 callsubr
            return
          </CharString>
          <CharString index="76">
            -88 callsubr
            -287 -443 -768 89 500 vvcurveto
            366 396 414 366 97 34 -88 -110 -92 vhcurveto
            -19 17 93 -63 35 hhcurveto
            52 92 77 111 143 -143 59 -147 -524 -656 -518 -524 return
          </CharString>
          <CharString index="77">
            -56 callsubr
            -123 -49 -49 rrcurveto
            return
          </CharString>
          <CharString index="78">
            -145 hhcurveto
            -103 -116 -61 -81 -34 hvcurveto
            -8 -20 52 -28 0 vvcurveto
            return
          </CharString>
          <CharString index="79">
            hhcurveto
            -425 -402 -307 -309 return
          </CharString>
          <CharString index="80">
            hvcurveto
            -85 callsubr
            return
          </CharString>
          <CharString index="81">
            -88 callsubr
            -158 -104 -140 -88 -167 hhcurveto
            -113 -90 63 115 142 118 156 142 63 52 -27 -13 25 hvcurveto
            25 9 14 22 24 vvcurveto
            50 -83 54 -95 -267 -364 -277 -275 return
          </CharString>
          <CharString index="82">
            -24 -8 -48 -63 7 -25 rrcurveto
            -77 21 93 -56 85 hhcurveto
            115 155 60 133 hvcurveto
            123 -122 48 27 vvcurveto
            return
          </CharString>
          <CharString index="83">
            rmoveto
            -63 -34 41 75 return
          </CharString>
          <CharString index="84">
            100 hhcurveto
            25 -247 -227 -203 -150 62 -84 150 -52 callsubr
            -55 -12 50 55 143 239 268 -172 return
          </CharString>
          <CharString index="85">
            rmoveto
            14 -12 40 -3 19 -3 33 95 315 227 64 44 rrcurveto
            21 -9 -54 41 -17 hhcurveto
            -51 -166 -86 -89 -108 hvcurveto
            91 -58 -89 83 -71 hhcurveto
            -17 -39 -40 -21 -9 hvcurveto
            64 -44 106 -209 33 -95 rrcurveto
            endchar
          </CharString>
          <CharString index="86">
            355 hhcurveto
            204 188 211 204 37 -31 14 -39 2 hvcurveto
            -80 -38 -97 -38 -95 hhcurveto
            -151 -328 return
          </CharString>
          <CharString index="87">
            rmoveto
            14 -12 4 0 19 -3 84 35 225 85 102 50 rrcurveto
            21 -9 -42 43 -31 hhcurveto
            -27 -180 -84 -46 -98 hvcurveto
            49 -70 -122 81 -39 hhcurveto
            -29 -49 -47 -22 -10 hvcurveto
            65 -37 140 -71 53 -42 rrcurveto
            endchar
          </CharString>
          <CharString index="88">
            164 rmoveto
            -141 81 -62 57 66 return
          </CharString>
          <CharString index="89">
            rmoveto
            154 153 145 153 79 -50 64 -103 -167 -154 -152 -132 -102 79 -55 88 hvcurveto
            71 169 rmoveto
            -44 -25 22 33 62 64 59 70 35 27 -26 -32 -54 -65 -64 -62 hvcurveto
            endchar
          </CharString>
          <CharString index="90">
            hhcurveto
            334 249 253 236 98 hvcurveto
            -88 callsubr
            -143 -94 -169 -117 -182 hhcurveto
            -102 -109 38 79 -41 hvcurveto
            236 28 318 96 222 vvcurveto
            100 -86 52 -100 return
          </CharString>
          <CharString index="91">
            4 callsubr
            vhcurveto
            -93 callsubr
            return
          </CharString>
          <CharString index="92">
            rmoveto
            -65 80 -36 89 157 131 65 98 52 -62 42 -94 -166 -135 -81 -75 vhcurveto
            153 23 rmoveto
            36 77 37 59 35 28 -15 -24 -34 -72 -36 -56 -45 -26 15 21 vhcurveto
            endchar
          </CharString>
          <CharString index="93">
            rrcurveto
            -54 22 75 -71 104 hhcurveto
            183 34 184 325 86 hvcurveto
            return
          </CharString>
          <CharString index="94">
            419 47 -24 callsubr
            return
          </CharString>
          <CharString index="95">
            hhcurveto
            29 13 -8 -15 hvcurveto
            -147 return
          </CharString>
          <CharString index="96">
            rmoveto
            -181 119 -54 112 return
          </CharString>
          <CharString index="97">
            rmoveto
            -16 7 -42 21 -25 vhcurveto
            -32 -66 -167 -120 -93 -55 rrcurveto
            -37 12 42 -68 38 hhcurveto
            207 373 255 215 88 -65 60 -106 -127 -110 -83 -106 hvcurveto
            endchar
          </CharString>
          <CharString index="98">
            -20 29 -65 5 -40 -19 rrcurveto
            -178 -88 -243 return
          </CharString>
          <CharString index="99">
            2 callsubr
            -162 return
          </CharString>
          <CharString index="100">
            -17 5 39 -22 13 hhcurveto
            return
          </CharString>
          <CharString index="101">
            38 270 rmoveto
            return
          </CharString>
          <CharString index="102">
            rmoveto
            -30 callsubr
            -17 5 39 -22 13 hhcurveto
            endchar
          </CharString>
          <CharString index="103">
            252 105 -27 callsubr
            -153 -108 -101 hhcurveto
            return
          </CharString>
          <CharString index="104">
            54 219 233 138 70 -43 49 -66 -179 1 -329 -129 -49 hvcurveto
            return
          </CharString>
          <CharString index="105">
            52 callsubr
            29 -82 174 hhcurveto
            return
          </CharString>
          <CharString index="106">
            -50 -69 -131 -86 -178 hhcurveto
            return
          </CharString>
          <CharString index="107">
            rmoveto
            -186 151 -63 3 callsubr
            return
          </CharString>
          <CharString index="108">
            -122 72 -124 81 42 67 58 39 36 hvcurveto
            -50 47 -34 63 80 vvcurveto
            return
          </CharString>
          <CharString index="109">
            vhcurveto
            -88 callsubr
            return
          </CharString>
          <CharString index="110">
            111 9 callsubr
            return
          </CharString>
          <CharString index="111">
            150 62 return
          </CharString>
          <CharString index="112">
            rmoveto
            -144 79 -72 57 66 179 89 42 37 vhcurveto
            469 -40 return
          </CharString>
          <CharString index="113">
            rmoveto
            0 88 73 80 vhcurveto
            109 60 return
          </CharString>
          <CharString index="114">
            rmoveto
            -3 callsubr
            -13 13 37 -19 13 hhcurveto
            endchar
          </CharString>
          <CharString index="115">
            hvcurveto
            -88 callsubr
            -125 -82 return
          </CharString>
          <CharString index="116">
            32 35 12 28 vhcurveto
            return
          </CharString>
          <CharString index="117">
            -293 431 585 -34 callsubr
            return
          </CharString>
          <CharString index="118">
            hmoveto
            329 227 250 210 87 hvcurveto
            -88 callsubr
            -162 -106 -152 -57 -125 hhcurveto
            return
          </CharString>
          <CharString index="119">
            216 rmoveto
            144 10 117 148 136 hhcurveto
            55 16 -42 -40 -110 -168 -81 -166 -19 hvcurveto
            return
          </CharString>
          <CharString index="120">
            106 88 -65 60 -106 return
          </CharString>
          <CharString index="121">
            hhcurveto
            125 159 195 143 59 hvcurveto
            -88 callsubr
            -108 -71 -99 -80 -73 hhcurveto
            return
          </CharString>
          <CharString index="122">
            rmoveto
            26 callsubr
            106 206 32 callsubr
          </CharString>
          <CharString index="123">
            rmoveto
            -340 238 return
          </CharString>
          <CharString index="124">
            rmoveto
            64 41 13 12 48 hvcurveto
            -23 280 167 return
          </CharString>
          <CharString index="125">
            310 vvcurveto
            188 -111 93 -169 -298 return
          </CharString>
          <CharString index="126">
            -13 53 -221 -34 -522 -1 -130 37 rrcurveto
            return
          </CharString>
          <CharString index="127">
            rrcurveto
            -7 callsubr
            return
          </CharString>
          <CharString index="128">
            44 vvcurveto
            138 return
          </CharString>
          <CharString index="129">
            vhcurveto
            -15 29 -24 return
          </CharString>
          <CharString index="130">
            -28 53 -35 -62 vvcurveto
            -61 -105 -3 -60 42 vhcurveto
            return
          </CharString>
          <CharString index="131">
            236 rmoveto
            -279 216 -149 271 return
          </CharString>
          <CharString index="132">
            4 -29 -30 2 -31 hhcurveto
            -108 return
          </CharString>
          <CharString index="133">
            -80 76 -46 80 return
          </CharString>
          <CharString index="134">
            rmoveto
            -64 63 -43 64 76 102 88 66 59 -88 51 -39 -57 -121 -85 -72 vhcurveto
            return
          </CharString>
          <CharString index="135">
            -9 callsubr
            -290 -242 vvcurveto
            endchar
          </CharString>
          <CharString index="136">
            25 callsubr
            -112 -84 -97 -76 71 -74 69 1 hvcurveto
            return
          </CharString>
          <CharString index="137">
            -122 83 -79 81 42 86 59 39 29 hvcurveto
            -50 47 -53 81 80 vvcurveto
            return
          </CharString>
          <CharString index="138">
            317 151 62 hvcurveto
            23 57 -23 21 -35 -3 rrcurveto
            -113 -74 return
          </CharString>
          <CharString index="139">
            -43 callsubr
            endchar
          </CharString>
          <CharString index="140">
            -118 44 -97 68 -66 92 -45 -11 -40 -18 9 -53 rrcurveto
            endchar
          </CharString>
          <CharString index="141">
            22 callsubr
            52 21 callsubr
            return
          </CharString>
          <CharString index="142">
            339 486 304 336 return
          </CharString>
          <CharString index="143">
            -480 -534 -403 -370 return
          </CharString>
          <CharString index="144">
            411 hhcurveto
            87 65 -45 -96 hvcurveto
            return
          </CharString>
          <CharString index="145">
            56 -6 callsubr
            return
          </CharString>
          <CharString index="146">
            106 -110 return
          </CharString>
          <CharString index="147">
            40 86 hvcurveto
            42 20 5 69 -14 21 -221 -34 return
          </CharString>
          <CharString index="148">
            -266 -241 -128 104 -72 128 321 return
          </CharString>
          <CharString index="149">
            387 rmoveto
            -248 132 return
          </CharString>
          <CharString index="150">
            21 -24 7 vhcurveto
            return
          </CharString>
          <CharString index="151">
            157 57 vvcurveto
            18 -66 43 callsubr
            -16 return
          </CharString>
          <CharString index="152">
            -113 -108 hhcurveto
            -56 -33 26 56 142 return
          </CharString>
          <CharString index="153">
            -88 65 -60 106 161 136 111 107 return
          </CharString>
          <CharString index="154">
            -186 -158 -58 -38 45 58 hvcurveto
            endchar
          </CharString>
          <CharString index="155">
            58 callsubr
            endchar
          </CharString>
          <CharString index="156">
            -9 6 vhcurveto
            return
          </CharString>
          <CharString index="157">
            -121 rmoveto
            -33 24 114 -54 41 hhcurveto
            return
          </CharString>
          <CharString index="158">
            -26 24 -63 16 -28 -26 return
          </CharString>
          <CharString index="159">
            -124 -35 return
          </CharString>
          <CharString index="160">
            38 271 rmoveto
            -159 39 callsubr
            return
          </CharString>
          <CharString index="161">
            80 -76 46 -80 -106 -206 -90 -106 return
          </CharString>
          <CharString index="162">
            -138 -30 62 -153 206 hhcurveto
            return
          </CharString>
          <CharString index="163">
            -168 rmoveto
            -33 24 57 -54 43 hhcurveto
            return
          </CharString>
          <CharString index="164">
            27 18 vhcurveto
            -44 23 -23 36 35 vvcurveto
            return
          </CharString>
          <CharString index="165">
            rrcurveto
            -2 callsubr
            return
          </CharString>
          <CharString index="166">
            hvcurveto
            227 return
          </CharString>
          <CharString index="167">
            -252 hvcurveto
            return
          </CharString>
          <CharString index="168">
            0 vvcurveto
            endchar
          </CharString>
          <CharString index="169">
            3 callsubr
            2 return
          </CharString>
          <CharString index="170">
            10 -128 32 rrcurveto
            -108 -38 return
          </CharString>
          <CharString index="171">
            -36 98 -88 -28 -23 -13 -22 -26 return
          </CharString>
          <CharString index="172">
            18 -58 21 -24 7 return
          </CharString>
          <CharString index="173">
            50 249 rmoveto
            return
          </CharString>
          <CharString index="174">
            41 18 22 return
          </CharString>
          <CharString index="175">
            hvcurveto
            376 return
          </CharString>
        <CharString name=".notdef">
          -97 endchar
        </CharString>
        <CharString name=".null">
          -97 endchar
        </CharString>
        <CharString name="A">
          -107 callsubr
          endchar
        </CharString>
        <CharString name="AE">
          1480 396 -19 callsubr
          165 81 42 37 vhcurveto
          -45 245 138 294 210 253 88 -26 89 -37 106 -51 42 42 0 54 -67 41 -28 17 -61 29 -81 30 rrcurveto
          270 256 330 201 246 -12 callsubr
          -642 -425 -431 vvcurveto
          -240 192 -207 347 300 284 282 117 22 -40 35 49 callsubr
          -1 callsubr
          -76 -166 33 173 65 19 78 28 83 hvcurveto
          132 101 222 47 283 -63 27 -6 41 120 8 37 rrcurveto
          -190 39 -257 101 156 vvcurveto
          126 338 65 -70 callsubr
          -158 -196 -38 -65 -147 hvcurveto
          58 -4 -45 41 -85 hhcurveto
          -292 -449 -225 -298 -360 hvcurveto
          17 -81 -88 11 -89 -71 callsubr
          43 41 -1 -3 38 hvcurveto
          -260 -244 -187 -276 -237 vvcurveto
          1628 806 rmoveto
          48 103 29 -32 37 -29 41 -24 rlinecurve
          -52 -2 -52 -6 -51 -10 rrcurveto
          endchar
        </CharString>
        <CharString name="Aacute">
          -107 callsubr
          1460 1470 -77 callsubr
        </CharString>
        <CharString name="Acircumflex">
          -107 callsubr
          1283 1438 -84 callsubr
        </CharString>
        <CharString name="Adieresis">
          -107 callsubr
          1877 1470 -81 callsubr
        </CharString>
        <CharString name="Agrave">
          -107 callsubr
          1371 1585 -63 callsubr
        </CharString>
        <CharString name="Aring">
          -107 callsubr
          1442 1532 -15 callsubr
        </CharString>
        <CharString name="Atilde">
          -107 callsubr
          1334 1498 -69 callsubr
        </CharString>
        <CharString name="B">
          646 79 550 rmoveto
          154 -751 1463 -9 680 vvcurveto
          139 -81 118 -167 78 vhcurveto
          184 53 147 119 163 vvcurveto
          302 -371 139 -366 -331 -446 -138 -301 -122 90 -103 81 42 67 58 39 36 vhcurveto
          -50 47 -34 63 80 vvcurveto
          190 273 81 283 222 304 -78 -214 -140 -215 -86 -169 -40 -70 8 14 -57 vhcurveto
          80 141 77 124 67 69 51 callsubr
          -217 -201 -273 -451 -198 -263 -125 49 -106 67 -57 79 -30 -7 -55 -26 5 -24 rrcurveto
          599 -205 rmoveto
          75 119 88 169 89 166 rrcurveto
          195 -7 165 -86 -146 vvcurveto
          -227 -310 -47 -302 59 vhcurveto
          endchar
        </CharString>
        <CharString name="C">
          240 105 530 rmoveto
          -815 1199 96 271 649 vhcurveto
          -31 callsubr
          hvcurveto
          endchar
        </CharString>
        <CharString name="CR">
          -97 endchar
        </CharString>
        <CharString name="Ccedilla">
          240 392 -320 rmoveto
          -25 callsubr
          26 106 59 80 29 vhcurveto
          297 41 299 177 119 286 -31 callsubr
          -370 247 -182 295 -28 hvcurveto
          -74 -32 -69 -48 -43 23 callsubr
          endchar
        </CharString>
        <CharString name="D">
          712 -46 callsubr
          170 266 236 544 173 177 51 callsubr
          -224 -207 -293 -479 -204 -260 33 callsubr
        </CharString>
        <CharString name="DC1">
          endchar
        </CharString>
        <CharString name="DC2">
          endchar
        </CharString>
        <CharString name="DC3">
          endchar
        </CharString>
        <CharString name="DC4">
          endchar
        </CharString>
        <CharString name="DEL">
          endchar
        </CharString>
        <CharString name="DLE">
          endchar
        </CharString>
        <CharString name="E">
          207 -101 callsubr
          endchar
        </CharString>
        <CharString name="Eacute">
          -97 callsubr
          1135 1260 -77 callsubr
        </CharString>
        <CharString name="Ecircumflex">
          -97 callsubr
          922 1228 -84 callsubr
        </CharString>
        <CharString name="Edieresis">
          -97 callsubr
          1536 1260 -81 callsubr
        </CharString>
        <CharString name="Egrave">
          -97 callsubr
          1073 1375 -63 callsubr
        </CharString>
        <CharString name="Eth">
          833 -46 callsubr
          53 83 60 112 63 118 rrcurveto
          194 32 224 70 85 vvcurveto
          17 -9 11 -23 -4 vhcurveto
          -75 -12 -103 -6 -107 -1 105 199 107 191 90 92 51 callsubr
          -120 -111 -140 -189 -135 -191 -88 4 -79 8 -59 10 -43 -71 -5 -129 128 -31 -64 -91 -62 -86 -54 -69 rrcurveto
          33 callsubr
        </CharString>
        <CharString name="Euro">
          206 228 42 callsubr
          -145 268 209 202 139 165 86 vhcurveto
          34 65 -40 54 -22 20 rrcurveto
          -68 -80 -126 -52 -124 hhcurveto
          -148 -69 73 133 hvcurveto
          3 vlineto
          153 9 151 19 112 40 42 15 21 52 -13 53 -104 -16 -171 -9 -165 -1 8 30 12 30 12 31 178 10 180 22 84 36 67 callsubr
          37 -13 53 -99 -15 -158 -9 -157 -2 rrcurveto
          185 115 177 153 186 hhcurveto
          117 67 -96 -97 37 hvcurveto
          0 108 27 98 vvcurveto
          79 -121 100 -186 -262 -271 -205 -241 -186 vhcurveto
          -107 4 -89 8 -44 13 -33 -115 23 -60 142 -8 -15 -27 -15 -26 -13 -27 -77 5 -62 7 -34 10 -31 -108 18 -68 119 -16 rrcurveto
          -14 -49 -7 -47 -41 vvcurveto
          endchar
        </CharString>
        <CharString name="F">
          283 215 227 rmoveto
          -143 72 -143 160 379 370 543 425 161 vhcurveto
          93 -2 95 -9 87 -15 rrcurveto
          0 12 79 -39 13 vhcurveto
          -63 21 -72 16 -73 11 rrcurveto
          29 96 16 85 66 vvcurveto
          230 -294 70 -277 -303 -512 -81 -239 -56 63 -130 65 72 53 35 28 26 34 callsubr
          367 67 208 197 209 -55 -128 -52 -27 -85 -45 -97 vhcurveto
          1 -11 -12 0 -11 hhcurveto
          -415 -152 -134 -118 161 hvcurveto
          37 56 149 41 184 16 rrcurveto
          -261 -147 -234 -283 -187 hhcurveto
          -72 -24 67 98 37 12 51 14 40 hvcurveto
          -34 21 -40 12 -28 -25 rrcurveto
          -59 -54 -121 -183 -195 vvcurveto
          endchar
        </CharString>
        <CharString name="G">
          573 128 492 rmoveto
          -353 233 -174 357 471 479 421 400 39 -3 38 -7 34 vhcurveto
          44 33 38 35 32 36 rrcurveto
          30 33 -68 55 0 vvcurveto
          -36 -32 -38 -31 -40 -28 rrcurveto
          66 -41 -71 41 -116 hhcurveto
          -195 -375 -98 -144 -118 137 -53 146 134 148 47 68 129 hvcurveto
          -297 -15 -349 -201 -246 hhcurveto
          -233 -132 133 243 412 443 376 375 145 128 -90 -87 65 hvcurveto
          36 28 40 35 46 vvcurveto
          156 -226 23 -156 -575 -688 -578 -514 vhcurveto
          915 403 rmoveto
          56 222 45 115 66 38 -23 -48 19 vhcurveto
          -53 -102 -110 -35 -110 hhcurveto
          -68 -70 15 43 hvcurveto
          endchar
        </CharString>
        <CharString name="H">
          787 51 271 rmoveto
          -208 85 -149 196 347 279 507 460 164 vhcurveto
          123 -37 127 -48 132 -36 rrcurveto
          -409 -176 -73 -394 329 hhcurveto
          184 281 315 188 77 hvcurveto
          -88 callsubr
          -129 -85 -128 -90 -95 hhcurveto
          -92 -14 91 92 51 16 77 26 91 hvcurveto
          -4 34 35 -2 36 hhcurveto
          88 6 150 0 hvcurveto
          -52 -4 -51 1 -50 2 92 264 143 309 93 116 -26 22 -62 38 -29 -36 -107 -132 -171 -272 -136 -284 -143 26 -135 41 -126 34 73 227 44 204 7 109 rrcurveto
          39 3 -68 14 -34 hhcurveto
          -14 -152 -66 -205 -90 -199 rrcurveto
          17 -77 -73 11 -70 hhcurveto
          -455 -287 -443 -339 hvcurveto
          401 60 rmoveto
          -92 -41 71 128 187 153 220 341 49 51 -6 -10 51 hvcurveto
          -314 -157 -209 -276 -146 hhcurveto
          endchar
        </CharString>
        <CharString name="HT">
          endchar
        </CharString>
        <CharString name="I">
          68 -105 callsubr
          endchar
        </CharString>
        <CharString name="IJ">
          1276 -105 callsubr
          1130 -493 -76 callsubr
          endchar
        </CharString>
        <CharString name="Iacute">
          101 -105 callsubr
          755 1327 -77 callsubr
        </CharString>
        <CharString name="Icircumflex">
          101 -105 callsubr
          571 1295 -84 callsubr
        </CharString>
        <CharString name="Idieresis">
          101 -105 callsubr
          1132 1327 -81 callsubr
        </CharString>
        <CharString name="Igrave">
          101 -105 callsubr
          707 1442 -63 callsubr
        </CharString>
        <CharString name="Itilde">
          101 -105 callsubr
          597 1355 -69 callsubr
        </CharString>
        <CharString name="J">
          87 2 -186 -76 callsubr
          endchar
        </CharString>
        <CharString name="Jcircumflex">
          134 2 -186 -76 callsubr
          241 1571 -84 callsubr
        </CharString>
        <CharString name="K">
          -61 callsubr
          endchar
        </CharString>
        <CharString name="Kcommaaccent">
          -61 callsubr
          564 -148 -58 callsubr
        </CharString>
        <CharString name="L">
          -60 callsubr
          endchar
        </CharString>
        <CharString name="LF">
          endchar
        </CharString>
        <CharString name="Ldot">
          -60 callsubr
          1293 593 -34 callsubr
          endchar
        </CharString>
        <CharString name="Lslash">
          393 105 -6 17 callsubr
          -223 -21 callsubr
          72 40 -122 hvcurveto
          130 16 84 192 79 227 128 2 122 3 80 17 91 19 -46 129 -1 35 -54 -27 -122 -10 -145 -10 rrcurveto
          313 105 113 319 219 hhcurveto
          134 -7 -240 -141 -202 hvcurveto
          0 50 -97 69 94 120 173 164 144 -68 114 -168 -350 -183 -404 -363 -190 vhcurveto
          -281 -23 -241 -33 -153 vvcurveto
          -121 120 -26 48 41 vhcurveto
          -4 25 -4 15 33 vvcurveto
          75 107 11 175 9 vhcurveto
          -83 -145 -88 -126 -107 -74 rrcurveto
          29 callsubr
          endchar
        </CharString>
        <CharString name="M">
          1286 230 hmoveto
          398 414 761 539 165 hvcurveto
          100 -209 -68 -382 -138 -305 rrcurveto
          -93 -94 -100 -128 -62 vvcurveto
          -65 178 -96 126 56 120 224 156 20 vhcurveto
          184 252 302 295 254 254 -130 -402 -229 -544 -115 -96 rrcurveto
          106 -165 489 -28 375 vvcurveto
          333 16 303 83 447 vhcurveto
          45 51 64 79 36 vvcurveto
          31 -19 33 -46 -61 -61 -69 -182 -71 vhcurveto
          -232 -198 -346 -268 -206 -233 rrcurveto
          632 82 -157 282 -378 hhcurveto
          -308 -372 -240 -304 30 callsubr
          194 221 141 217 84 63 -27 -47 47 vhcurveto
          -203 -470 -375 -781 -525 371 rrcurveto
          -83 -138 -86 -416 405 hhcurveto
          endchar
        </CharString>
        <CharString name="N">
          -62 callsubr
          endchar
        </CharString>
        <CharString name="Nacute">
          -62 callsubr
          845 1445 -77 callsubr
        </CharString>
        <CharString name="Ntilde">
          645 916 1662 6 callsubr
          -88 -47 callsubr
          78 -29 callsubr
          -809 -1473 5 callsubr
          500 840 37 callsubr
          -221 -560 -321 -364 -80 callsubr
          -71 -55 40 88 hvcurveto
          312 228 219 18 callsubr
          -242 -250 -37 callsubr
          endchar
        </CharString>
        <CharString name="O">
          411 -103 callsubr
          endchar
        </CharString>
        <CharString name="OE">
          1019 54 522 16 callsubr
          -200 322 159 157 61 100 137 vhcurveto
          -103 90 148 -67 198 hhcurveto
          300 284 282 117 22 -49 41 0 hvcurveto
          -1 callsubr
          -204 -114 125 122 121 65 151 115 71 hvcurveto
          -102 100 169 -65 96 hhcurveto
          36 50 49 74 23 hvcurveto
          -173 49 -182 133 133 vvcurveto
          126 312 159 -70 callsubr
          -178 -216 -98 -128 -144 hvcurveto
          141 -66 -143 88 -179 hhcurveto
          -560 -594 -476 -560 hvcurveto
          418 169 rmoveto
          450 282 307 450 140 101 -97 -140 -89 -21 -63 -18 -61 vhcurveto
          -171 -49 -271 -167 -362 vvcurveto
          -15 1 -15 1 -15 vhcurveto
          -23 -55 -57 -13 -57 hhcurveto
          -208 -117 136 216 hvcurveto
          endchar
        </CharString>
        <CharString name="Oacute">
          -99 callsubr
          551 953 -77 callsubr
        </CharString>
        <CharString name="Ocircumflex">
          -99 callsubr
          408 921 -84 callsubr
        </CharString>
        <CharString name="Odieresis">
          -99 callsubr
          954 953 -81 callsubr
        </CharString>
        <CharString name="Ograve">
          -99 callsubr
          399 1068 -63 callsubr
        </CharString>
        <CharString name="Oslash">
          447 93 -159 rmoveto
          -33 24 104 -54 41 hhcurveto
          26 72 81 128 96 hvcurveto
          -11 49 53 -6 55 hhcurveto
          755 244 720 419 184 -65 142 -108 83 hvcurveto
          36 69 22 48 16 vvcurveto
          18 -53 18 -24 7 vhcurveto
          -13 -23 -26 -43 -37 -57 rrcurveto
          18 -47 -52 9 -56 hhcurveto
          -505 -631 -556 -532 -202 84 -152 135 -91 hvcurveto
          -76 -93 -62 -71 -41 -36 rrcurveto
          456 564 rmoveto
          -51 60 -27 86 104 vvcurveto
          438 350 371 364 33 31 -6 -12 29 vhcurveto
          -174 -262 -296 -428 -259 -351 rrcurveto
          155 -92 rmoveto
          239 352 273 435 156 273 rrcurveto
          37 -51 22 -73 -95 vvcurveto
          -387 -267 -464 -368 -33 -31 3 7 -28 vhcurveto
          endchar
        </CharString>
        <CharString name="Otilde">
          -99 callsubr
          472 981 -69 callsubr
        </CharString>
        <CharString name="P">
          404 746 401 rmoveto
          -48 19 110 -30 60 hhcurveto
          385 376 430 360 362 -388 122 -326 -310 -525 -134 -310 1 callsubr
          200 390 97 200 240 286 -81 -240 -260 -311 -221 -187 -100 -47 12 18 -45 vhcurveto
          0 -66 -255 25 -63 vhcurveto
          -675 -335 rmoveto
          -39 49 76 -66 195 hhcurveto
          170 163 1163 207 262 hvcurveto
          -33 29 -51 23 -30 -23 -314 -236 -333 -894 -154 -164 rrcurveto
          endchar
        </CharString>
        <CharString name="Q">
          547 108 396 16 callsubr
          -170 322 105 107 25 44 103 vhcurveto
          -232 87 143 -206 227 hhcurveto
          179 136 117 77 54 hvcurveto
          21 30 -41 40 0 vvcurveto
          -18 -40 -39 -9 -39 hhcurveto
          -145 -162 167 187 -127 hvcurveto
          217 173 156 250 237 vvcurveto
          38 -40 35 -35 -3 vhcurveto
          -12 -171 -195 -227 -219 -116 -49 97 -33 87 -8 54 rrcurveto
          287 131 354 300 306 vvcurveto
          157 -129 126 -250 -629 -544 -667 -519 vhcurveto
          404 175 rmoveto
          492 325 409 440 140 88 -80 -116 -267 -311 -275 -340 -137 vhcurveto
          -42 11 -138 34 -164 vhcurveto
          -3 -19 -19 -1 -18 hhcurveto
          -208 -123 106 216 hvcurveto
          endchar
        </CharString>
        <CharString name="R">
          -104 callsubr
          endchar
        </CharString>
        <CharString name="RS">
          endchar
        </CharString>
        <CharString name="Racute">
          -104 callsubr
          7 907 -77 callsubr
        </CharString>
        <CharString name="Rcaron">
          -104 callsubr
          144 906 -20 callsubr
        </CharString>
        <CharString name="Rcommaaccent">
          -104 callsubr
          -518 -837 -58 callsubr
        </CharString>
        <CharString name="S">
          247 68 531 rmoveto
          -389 -28 262 -237 311 hhcurveto
          365 321 200 385 hvcurveto
          359 -464 189 196 vvcurveto
          124 153 76 161 148 137 -83 -86 52 vhcurveto
          36 25 55 63 47 vvcurveto
          108 -197 49 -166 -282 -299 -140 -263 vhcurveto
          -235 280 -171 -217 vvcurveto
          -170 -140 -63 -170 -216 -167 106 184 -72 vhcurveto
          -30 -7 -48 -26 -2 -24 rrcurveto
          endchar
        </CharString>
        <CharString name="T">
          78 174 243 rmoveto
          -139 153 -167 118 184 254 253 245 102 vhcurveto
          57 136 70 481 -17 289 rrcurveto
          320 29 304 38 166 vvcurveto
          82 -43 77 -67 -69 -57 -95 -98 -19 vhcurveto
          -32 -165 -1349 164 -475 vvcurveto
          -117 111 -119 44 44 126 48 40 vhcurveto
          40 -48 61 94 vvcurveto
          158 303 33 320 29 vhcurveto
          -81 -673 -728 -121 -294 vvcurveto
          endchar
        </CharString>
        <CharString name="Thorn">
          585 91 60 rmoveto
          -82 219 -38 137 vhcurveto
          6 40 43 150 61 197 3 -6 4 -5 5 -4 rrcurveto
          -59 74 146 -36 178 hhcurveto
          384 386 287 378 317 -408 121 -434 4 hvcurveto
          40 107 38 95 32 70 -25 31 -79 18 -25 -37 rrcurveto
          -203 -305 -582 -1004 -239 vvcurveto
          580 622 rmoveto
          58 176 62 183 59 164 rrcurveto
          275 -3 372 -59 -179 vvcurveto
          -208 -262 -137 -239 -111 -134 31 32 -80 vhcurveto
          endchar
        </CharString>
        <CharString name="U">
          -100 callsubr
          endchar
        </CharString>
        <CharString name="US">
          endchar
        </CharString>
        <CharString name="Uacute">
          -100 callsubr
          888 1363 -77 callsubr
        </CharString>
        <CharString name="Ucircumflex">
          -100 callsubr
          714 1331 -84 callsubr
        </CharString>
        <CharString name="Udieresis">
          -100 callsubr
          1271 1363 -81 callsubr
        </CharString>
        <CharString name="Ugrave">
          -100 callsubr
          765 1478 -63 callsubr
        </CharString>
        <CharString name="V">
          335 375 98 rmoveto
          -88 187 -120 92 76 70 72 112 55 vhcurveto
          191 244 593 668 452 vvcurveto
          88 64 callsubr
          vhcurveto
          44 -59 7 -77 -53 vvcurveto
          -308 -260 -297 -249 -236 vhcurveto
          465 47 -114 537 -416 hhcurveto
          -251 -277 -276 -272 30 callsubr
          186 162 155 117 404 -227 -938 -276 -157 vhcurveto
          -41 -25 -70 -72 -50 vvcurveto
          endchar
        </CharString>
        <CharString name="W">
          988 83 173 rmoveto
          -100 67 -83 116 288 286 268 331 227 vhcurveto
          -391 -97 44 -228 232 hhcurveto
          440 541 962 508 86 64 callsubr
          hvcurveto
          44 -59 7 -76 -54 vvcurveto
          -392 -386 -613 -226 -122 54 565 362 88 vhcurveto
          91 54 53 143 -78 hhcurveto
          -42 -79 -15 -81 -33 hvcurveto
          -43 -105 -55 -150 -50 -122 rrcurveto
          -386 -218 -249 -241 -105 hhcurveto
          -39 -20 33 37 193 428 842 -544 -4 hvcurveto
          -149 -1 -243 -127 -110 vvcurveto
          -41 59 -29 0 vhcurveto
          66 47 133 118 121 hhcurveto
          376 -726 -754 -506 hvcurveto
          endchar
        </CharString>
        <CharString name="X">
          507 154 1 rmoveto
          245 253 132 188 225 hvcurveto
          -203 51 90 -148 188 hhcurveto
          275 260 238 -4 callsubr
          -108 -70 163 208 -76 hvcurveto
          260 330 159 358 -52 159 -10 30 -42 -1 -39 -9 -11 -170 -143 -254 -200 -228 rrcurveto
          328 -122 -162 345 -334 hhcurveto
          -38 -21 -37 -45 -2 hvcurveto
          290 -33 15 -455 51 -404 rrcurveto
          -133 -179 -192 -90 -173 hhcurveto
          -119 -92 40 0 0 -155 -416 236 hvcurveto
          endchar
        </CharString>
        <CharString name="Y">
          240 -73 callsubr
          endchar
        </CharString>
        <CharString name="Yacute">
          459 -73 callsubr
          1023 1262 -77 callsubr
        </CharString>
        <CharString name="Ydieresis">
          260 -73 callsubr
          1311 1280 -81 callsubr
        </CharString>
        <CharString name="Z">
          356 124 -27 rmoveto
          327 102 671 51 213 -71 58 75 96 125 -199 67 rrcurveto
          -216 73 -437 -41 0 0 1067 547 378 vvcurveto
          166 -140 116 -294 -459 -459 -123 -233 -80 137 -41 56 20 24 18 57 callsubr
          139 370 82 292 230 61 -31 -91 -393 -1389 -478 -112 -122 vhcurveto
          -75 -82 43 -325 164 51 rrcurveto
          endchar
        </CharString>
        <CharString name="a">
          -106 callsubr
          endchar
        </CharString>
        <CharString name="aacute">
          -106 callsubr
          264 723 -74 callsubr
        </CharString>
        <CharString name="acircumflex">
          -106 callsubr
          69 723 -87 callsubr
        </CharString>
        <CharString name="acute">
          79 528 1040 -74 callsubr
        </CharString>
        <CharString name="acute.cap">
          479 858 1634 -77 callsubr
        </CharString>
        <CharString name="adieresis">
          -106 callsubr
          570 757 -82 callsubr
        </CharString>
        <CharString name="ae">
          456 -44 callsubr
          168 112 75 65 vhcurveto
          -149 59 156 -67 197 -17 callsubr
          -102 -119 -30 -51 -114 vhcurveto
          12 31 9 23 4 12 rrcurveto
          0 -113 34 -40 -54 vhcurveto
          -9 -12 rlineto
          16 -22 -38 9 -54 hhcurveto
          -425 -382 -290 -309 hvcurveto
          1009 12 callsubr
          -590 -169 -24 callsubr
          181 209 162 343 1 hvcurveto
          -171 -117 -179 -289 -159 hhcurveto
          endchar
        </CharString>
        <CharString name="agrave">
          -106 callsubr
          424 724 -66 callsubr
        </CharString>
        <CharString name="ampersand">
          596 98 384 rmoveto
          -247 192 -138 245 113 120 41 64 115 vhcurveto
          -65 62 88 -40 108 hhcurveto
          305 148 237 126 53 hvcurveto
          13 33 -20 28 -25 10 rrcurveto
          -44 -49 -125 -46 -88 hhcurveto
          -44 -38 17 30 -32 hvcurveto
          130 140 86 144 89 vvcurveto
          34 -34 6 -27 4 vhcurveto
          -35 -92 -91 -98 -117 -80 -36 100 -16 125 5 120 rrcurveto
          215 83 188 97 160 vvcurveto
          87 -72 68 -115 -211 -153 -211 -249 -90 vhcurveto
          -357 -119 -411 -141 -273 vvcurveto
          1018 620 rmoveto
          154 25 63 119 99 hhcurveto
          37 42 -20 -55 -78 -111 -60 -155 -60 hvcurveto
          -633 -501 rmoveto
          121 153 80 187 73 vhcurveto
          -33 -130 -17 -132 -110 vvcurveto
          -12 0 -11 1 -11 vhcurveto
          -9 -45 -44 -5 -42 hhcurveto
          -97 -63 53 93 hvcurveto
          endchar
        </CharString>
        <CharString name="aring">
          -106 callsubr
          341 660 -18 callsubr
        </CharString>
        <CharString name="asciicircum">
          79 258 325 rmoveto
          62 210 134 108 131 hvcurveto
          -110 70 118 -130 86 hhcurveto
          21 46 48 25 11 hvcurveto
          -77 53 -139 283 -40 116 -16 14 -48 3 -24 3 -40 -114 -391 -305 -77 -53 rrcurveto
          -25 10 66 -50 21 hhcurveto
          endchar
        </CharString>
        <CharString name="asciitilde">
          79 251 452 rmoveto
          0 122 123 97 vhcurveto
          117 25 -185 177 hhcurveto
          149 151 168 102 27 -79 42 0 hvcurveto
          0 -68 -78 -70 vhcurveto
          -123 -58 142 -175 hhcurveto
          -144 -138 -121 -126 -58 hvcurveto
          -11 -24 86 -70 61 callsubr
        </CharString>
        <CharString name="asterisk">
          -118 540 845 rmoveto
          19 -14 56 -6 32 38 27 31 41 90 39 102 63 -43 56 -33 26 -13 33 -18 58 33 21 39 -37 30 -58 50 -63 57 111 58 98 59 46 47 68 70 -31 43 -50 47 rrcurveto
          -37 -33 -100 -61 -117 -67 rrcurveto
          15 58 10 50 32 vvcurveto
          69 -30 27 -103 -4 vhcurveto
          -38 -18 -94 -27 -110 vhcurveto
          -82 78 -67 69 -10 24 rrcurveto
          -44 -25 -45 -43 -39 vvcurveto
          -51 66 -73 83 -70 vhcurveto
          -125 -68 -109 -57 -38 -19 rrcurveto
          -23 -1 19 -60 47 hhcurveto
          18 97 37 52 119 hvcurveto
          -28 -96 -29 -85 -19 -47 rrcurveto
          endchar
        </CharString>
        <CharString name="at">
          379 22 24 callsubr
          101 115 32 67 75 vhcurveto
          17 15 -12 27 -16 22 rrcurveto
          -301 -70 -292 104 283 vvcurveto
          35 callsubr
          178 122 -80 -170 -180 -131 -162 -118 -115 156 370 48 18 vhcurveto
          0 -82 24 -28 -39 vhcurveto
          -6 -7 -5 -8 -6 -8 rrcurveto
          19 -11 -22 14 -37 hhcurveto
          -303 -282 -227 -219 -114 76 -78 119 112 79 61 53 47 hvcurveto
          -81 -3 75 -33 79 hhcurveto
          288 229 268 290 232 -169 105 -242 36 callsubr
          hvcurveto
          562 175 rmoveto
          112 136 127 237 4 vhcurveto
          -128 -86 -122 -187 -105 hhcurveto
          -45 -15 19 53 hvcurveto
          endchar
        </CharString>
        <CharString name="atilde">
          -106 callsubr
          68 798 -75 callsubr
        </CharString>
        <CharString name="b">
          -51 44 321 rmoveto
          -218 151 -104 168 vhcurveto
          2 hlineto
          446 338 125 336 139 hvcurveto
          -89 callsubr
          -86 -131 -125 -87 -124 -17 rrcurveto
          70 101 42 116 112 vvcurveto
          145 -84 110 -186 -88 -92 -31 -48 -81 vhcurveto
          102 218 142 223 61 95 -33 51 -85 1 -39 -45 rrcurveto
          -143 -166 -460 -619 -243 vvcurveto
          339 103 rmoveto
          31 5 36 8 38 vhcurveto
          133 59 147 118 133 hhcurveto
          66 47 -51 -64 -158 -211 47 callsubr
        </CharString>
        <CharString name="backslash">
          -105 524 -247 rmoveto
          158 3 44 31 62 vvcurveto
          225 -302 1592 -90 -22 -34 -10 -6 -18 vhcurveto
          74 -201 215 -1393 -25 -303 rrcurveto
          endchar
        </CharString>
        <CharString name="bar">
          -105 194 50 callsubr
          131 604 1593 182 65 callsubr
          hvcurveto
          -44 -203 -621 -1386 -167 -145 rrcurveto
          endchar
        </CharString>
        <CharString name="braceleft">
          -210 130 -131 rmoveto
          -141 67 -75 57 63 100 52 33 36 vhcurveto
          -141 376 412 460 -133 191 rrcurveto
          72 333 -58 667 342 hhcurveto
          15 13 -2 -3 14 hvcurveto
          58 32 -44 35 -57 hhcurveto
          -371 -15 -684 -25 -294 hvcurveto
          -50 -4 -18 -43 -27 -41 rrcurveto
          145 -202 -421 -390 -334 vvcurveto
          endchar
        </CharString>
        <CharString name="braceright">
          50 80 -176 rmoveto
          -42 3 36 -145 120 hhcurveto
          475 -78 976 119 325 hvcurveto
          24 10 46 46 -25 49 rrcurveto
          -113 65 228 338 196 vvcurveto
          143 -57 61 -69 -51 vhcurveto
          16 -35 16 -39 -39 vvcurveto
          -220 -292 -291 119 -139 vhcurveto
          -403 -134 21 -791 -392 -77 rrcurveto
          endchar
        </CharString>
        <CharString name="bracketleft">
          -133 118 -234 rmoveto
          -88 381 -29 94 16 vhcurveto
          42 7 45 191 0 vvcurveto
          -60 -4 -123 18 -42 12 113 481 383 989 121 115 59 3 123 -8 41 -6 10 15 30 62 -10 7 -48 33 -253 15 -37 -33 rrcurveto
          -209 -184 -660 -1215 -397 vvcurveto
          endchar
        </CharString>
        <CharString name="bracketright">
          28 55 -126 rmoveto
          -18 -50 -16 -134 15 -24 19 -31 381 -19 47 35 105 78 456 1297 78 522 6 39 -263 5 -67 -11 rrcurveto
          -52 -9 -8 -95 0 vvcurveto
          87 -2 96 -3 55 -12 -124 -418 -516 -1051 -93 -115 rrcurveto
          -84 -11 -104 9 61 callsubr
        </CharString>
        <CharString name="brokenbar">
          -105 739 901 rmoveto
          0 75 -49 46 37 211 623 90 21 -53 20 -29 7 vhcurveto
          -16 -76 -148 -386 -123 -250 rrcurveto
          -539 -1024 rmoveto
          -25 25 107 -60 41 hhcurveto
          75 296 679 78 31 -133 47 0 hvcurveto
          -168 -355 -178 -329 -65 -66 rrcurveto
          endchar
        </CharString>
        <CharString name="bullet">
          -142 341 491 rmoveto
          -80 106 -76 80 143 189 117 109 98 -87 80 -117 -167 -147 -128 -120 vhcurveto
          endchar
        </CharString>
        <CharString name="c">
          -270 50 333 rmoveto
          -228 144 -120 228 299 244 224 251 104 vhcurveto
          -26 callsubr
          vhcurveto
          endchar
        </CharString>
        <CharString name="caron">
          661 1058 -22 callsubr
        </CharString>
        <CharString name="caron.cap">
          479 1023 1633 -20 callsubr
        </CharString>
        <CharString name="ccedilla">
          -270 242 -115 rmoveto
          23 callsubr
          -25 callsubr
          17 52 41 52 35 vhcurveto
          255 40 205 203 93 224 -26 callsubr
          -198 108 -116 177 -27 vhcurveto
          -50 -35 -43 -39 -33 vvcurveto
          endchar
        </CharString>
        <CharString name="cedilla">
          79 399 -262 rmoveto
          -25 callsubr
          28 141 92 49 24 vhcurveto
          -144 18 rlineto
          -65 -32 -151 -84 -61 23 callsubr
          endchar
        </CharString>
        <CharString name="cent">
          247 291 56 callsubr
          47 109 192 251 119 hvcurveto
          164 16 227 167 92 vvcurveto
          24 -35 22 0 vhcurveto
          -37 -79 -61 -13 -61 hhcurveto
          -11 -11 0 2 -10 hvcurveto
          84 193 80 199 59 165 70 -2 52 -24 31 -29 rrcurveto
          22 16 17 22 24 vvcurveto
          51 -64 45 -87 12 vhcurveto
          37 110 22 83 36 vvcurveto
          17 -58 43 callsubr
          -10 -47 -37 -100 -53 -129 rrcurveto
          -290 -44 -375 -280 -258 vvcurveto
          -177 90 -120 146 -45 vhcurveto
          -97 -186 -86 -145 -51 -44 rrcurveto
          393 693 rmoveto
          -30 33 -18 43 50 vvcurveto
          129 119 144 138 62 vhcurveto
          -61 -143 -73 -161 -75 -157 rrcurveto
          endchar
        </CharString>
        <CharString name="circumflex">
          79 538 1040 -87 callsubr
        </CharString>
        <CharString name="circumflex.cap">
          479 795 1602 -84 callsubr
        </CharString>
        <CharString name="colon">
          10 callsubr
          -251 -546 rmoveto
          -45 callsubr
          endchar
        </CharString>
        <CharString name="comma">
          -293 240 68 -10 callsubr
        </CharString>
        <CharString name="commaaccent">
          -340 219 -110 -58 callsubr
        </CharString>
        <CharString name="copyright">
          436 31 -41 callsubr
          202 24 rmoveto
          -131 103 -81 132 137 276 180 89 23 -29 17 0 vhcurveto
          -56 -50 -126 -37 -85 hhcurveto
          -45 -37 41 53 122 112 123 138 41 53 -10 -34 43 hvcurveto
          70 83 -117 74 -102 hhcurveto
          -241 -286 -214 -229 hvcurveto
          endchar
        </CharString>
        <CharString name="currency">
          252 189 263 rmoveto
          -29 8 51 -70 47 hhcurveto
          20 88 82 86 88 hvcurveto
          -24 38 46 -12 48 hhcurveto
          75 76 26 42 65 hvcurveto
          -65 50 77 -109 50 hhcurveto
          26 60 67 46 28 hvcurveto
          -46 37 -76 52 -65 66 rrcurveto
          56 68 36 84 85 vvcurveto
          21 -3 21 -5 19 vhcurveto
          79 54 94 78 46 vvcurveto
          16 -19 23 -26 23 vhcurveto
          -30 -27 -88 -64 -77 -54 rrcurveto
          23 -33 -43 13 -54 hhcurveto
          -94 -90 -36 -54 -73 hvcurveto
          -79 89 -48 81 -17 31 rrcurveto
          -28 -16 -33 -31 -23 vvcurveto
          -51 37 -94 65 -89 vhcurveto
          -43 -59 -26 -66 -62 vvcurveto
          -30 5 -26 8 -24 vhcurveto
          -80 -60 -100 -71 -45 -33 rrcurveto
          438 332 rmoveto
          84 87 80 92 52 31 -28 -51 -70 -87 -88 -83 -58 -34 29 44 vhcurveto
          endchar
        </CharString>
        <CharString name="d">
          76 53 callsubr
          168 158 131 82 76 65 vhcurveto
          -113 -3 103 -47 112 -91 callsubr
          -45 -16 38 55 179 308 577 113 176 hvcurveto
          -33 51 -90 5 -34 -49 -98 -141 -244 -416 -112 -184 rrcurveto
          -161 -98 -134 -128 -132 hhcurveto
          -64 -34 40 76 165 240 208 321 hvcurveto
          42 6 -17 37 -68 hhcurveto
          -412 1 -392 -339 -278 vvcurveto
          endchar
        </CharString>
        <CharString name="degree">
          -325 495 954 rmoveto
          169 168 158 173 84 -55 72 -113 -187 -169 -170 -142 -113 89 -62 98 hvcurveto
          54 164 rmoveto
          -49 -31 27 37 72 71 66 84 39 30 -19 -46 -61 -72 -76 -72 hvcurveto
          endchar
        </CharString>
        <CharString name="dieresis">
          79 1091 1074 -82 callsubr
        </CharString>
        <CharString name="dieresis.cap">
          479 1372 1634 -81 callsubr
        </CharString>
        <CharString name="divide">
          315 661 874 27 callsubr
          -177 -411 -35 callsubr
          -26 -294 27 callsubr
          endchar
        </CharString>
        <CharString name="dollar">
          247 200 56 callsubr
          32 68 102 156 85 hvcurveto
          -2 20 21 -1 22 hhcurveto
          310 310 207 295 176 -148 112 -126 91 hvcurveto
          57 136 51 128 41 110 88 -15 83 -52 32 -58 rrcurveto
          40 13 70 43 48 vvcurveto
          81 -138 55 -132 6 vhcurveto
          32 93 19 69 30 vvcurveto
          17 -58 43 callsubr
          -9 -40 -33 -88 -48 -115 rrcurveto
          -213 -30 -200 -124 -180 vvcurveto
          -107 74 -76 75 -69 vhcurveto
          -76 -160 -80 -162 -75 -145 -145 24 -140 87 -49 125 rrcurveto
          -24 -6 -41 -21 -19 vvcurveto
          -219 96 -163 157 -77 vhcurveto
          -63 -108 -52 -79 -33 -29 rrcurveto
          609 1131 rmoveto
          -42 36 -28 35 37 vvcurveto
          104 104 55 95 20 vhcurveto
          -38 -88 -44 -97 -47 -102 rrcurveto
          -143 -646 rmoveto
          55 115 56 125 54 124 rrcurveto
          33 -39 23 -41 -47 vvcurveto
          -137 -91 -77 -130 -23 vhcurveto
          endchar
        </CharString>
        <CharString name="dotlessi">
          -94 callsubr
          endchar
        </CharString>
        <CharString name="dotlessj">
          -632 179 9 -65 callsubr
          endchar
        </CharString>
        <CharString name="e">
          -96 callsubr
          endchar
        </CharString>
        <CharString name="eacute">
          -96 callsubr
          248 554 -74 callsubr
        </CharString>
        <CharString name="ecircumflex">
          -96 callsubr
          49 554 -87 callsubr
        </CharString>
        <CharString name="edieresis">
          -96 callsubr
          553 588 -82 callsubr
        </CharString>
        <CharString name="egrave">
          -96 callsubr
          361 555 -66 callsubr
        </CharString>
        <CharString name="eight">
          220 68 339 rmoveto
          -211 185 -128 234 406 285 224 292 111 -79 94 -93 82 vhcurveto
          196 80 172 90 139 vvcurveto
          162 -183 103 -209 -282 -228 -108 -183 -102 83 -85 93 -80 vhcurveto
          -288 -107 -292 -134 -239 vvcurveto
          815 565 rmoveto
          -95 75 -82 67 66 vvcurveto
          97 152 58 115 108 122 -43 -102 -87 -139 -64 -181 -67 vhcurveto
          -435 -455 rmoveto
          112 147 78 178 72 vhcurveto
          68 -62 53 -62 -68 vvcurveto
          -89 -96 -113 -172 -115 -63 57 75 vhcurveto
          endchar
        </CharString>
        <CharString name="ellipsis">
          1363 1836 39 rmoveto
          -45 callsubr
          -828 hmoveto
          -45 callsubr
          -828 hmoveto
          -45 callsubr
          endchar
        </CharString>
        <CharString name="emdash">
          540 493 433 rmoveto
          548 503 50 44 122 hvcurveto
          44 16 3 73 -14 21 -188 -29 -993 -28 -178 45 rrcurveto
          -120 -18 -3 -72 174 hhcurveto
          endchar
        </CharString>
        <CharString name="endash">
          397 633 433 rmoveto
          224 422 44 40 callsubr
          -569 63 callsubr
          17 -94 174 hhcurveto
          endchar
        </CharString>
        <CharString name="equal">
          315 517 623 -35 callsubr
          -67 -368 rmoveto
          224 260 10 60 171 hvcurveto
          42 15 21 66 19 callsubr
          52 callsubr
          29 -82 174 hhcurveto
          endchar
        </CharString>
        <CharString name="eth">
          -77 53 callsubr
          247 310 373 326 443 122 -42 127 -63 108 vhcurveto
          44 20 36 18 19 14 39 27 1 44 -19 28 -20 -14 -71 -26 -85 -26 -48 64 -54 53 -54 36 -26 17 -46 -5 -30 -33 45 -48 38 -59 30 -66 -106 -29 -102 -25 -45 -6 rrcurveto
          -40 -5 29 -69 55 hhcurveto
          35 87 26 33 91 hvcurveto
          16 -55 11 -59 4 -61 rrcurveto
          -410 -1 -390 -338 -277 vvcurveto
          420 48 rmoveto
          -64 -34 40 76 151 200 186 280 31 hvcurveto
          -220 -6 -180 -264 -196 hhcurveto
          endchar
        </CharString>
        <CharString name="exclam">
          -107 333 408 rmoveto
          -22 115 25 26 vhcurveto
          104 627 637 8 211 vvcurveto
          114 -88 89 -65 -158 -167 -163 -116 -96 vhcurveto
          -164 -198 -102 -300 -42 -275 rrcurveto
          -153 -369 15 callsubr
        </CharString>
        <CharString name="exclamdown">
          -107 801 477 rmoveto
          22 -115 -25 -26 vhcurveto
          -104 -627 -637 -8 -211 vvcurveto
          -114 88 -89 65 158 167 163 116 96 vhcurveto
          164 198 102 300 42 275 rrcurveto
          153 369 rmoveto
          54 callsubr
          46 callsubr
          vhcurveto
          endchar
        </CharString>
        <CharString name="f">
          -239 -8 -124 rmoveto
          -190 57 -187 156 211 152 254 272 65 vhcurveto
          -2 13 11 -1 10 hhcurveto
          190 179 283 155 64 8 callsubr
          -131 -115 -129 hhcurveto
          -18 -18 2 5 -18 hvcurveto
          2 182 -46 150 -103 36 rrcurveto
          282 71 265 255 230 vvcurveto
          98 -52 71 -67 -159 -315 -368 -403 -225 vhcurveto
          -104 -39 -96 -53 -4 -36 -6 -51 26 -54 43 -53 rrcurveto
          -73 -171 -45 -163 -129 vvcurveto
          572 914 rmoveto
          261 112 134 199 85 hhcurveto
          27 8 -26 -29 -158 -179 -190 -187 -57 hvcurveto
          -115 -320 rmoveto
          10 34 11 33 11 33 47 -23 21 -83 3 -103 -43 33 -36 40 -24 36 rrcurveto
          -80 -494 rmoveto
          48 3 51 6 53 vhcurveto
          50 -28 50 -24 45 -18 rrcurveto
          -135 -28 -45 -110 -44 hhcurveto
          -32 -5 62 101 hvcurveto
          endchar
        </CharString>
        <CharString name="five">
          16 25 139 rmoveto
          -85 66 142 -54 204 hhcurveto
          352 229 216 281 205 -124 185 -266 121 hvcurveto
          7 56 229 1 7 vhcurveto
          -6 102 372 -18 59 hhcurveto
          59 27 109 49 -9 hvcurveto
          -68 -17 -604 26 -40 -38 rrcurveto
          -49 -46 -137 -324 -48 vvcurveto
          66 -57 257 -134 -153 vvcurveto
          -143 -142 -78 -192 -91 -127 46 33 -66 vhcurveto
          -56 -76 -80 -161 59 -76 rrcurveto
          endchar
        </CharString>
        <CharString name="four">
          394 528 137 rmoveto
          -160 161 -26 206 16 vhcurveto
          23 195 69 190 82 173 rrcurveto
          1 29 29 0 28 hhcurveto
          125 140 -8 -14 42 hvcurveto
          32 41 16 37 23 vvcurveto
          74 -153 34 -186 7 vhcurveto
          146 262 148 204 94 vvcurveto
          43 -62 53 -43 8 vhcurveto
          -354 -147 -606 -335 -305 -229 19 -103 90 -194 164 51 96 30 116 23 120 16 rrcurveto
          -101 -133 -71 -126 -100 vvcurveto
          -125 552 rmoveto
          188 136 490 308 246 95 -77 -125 -189 -189 -175 -196 -229 -7 -206 -18 -48 -4 rrcurveto
          endchar
        </CharString>
        <CharString name="fraction">
          190 -140 -210 -53 callsubr
          endchar
        </CharString>
        <CharString name="g">
          -22 59 -57 rmoveto
          -73 -17 -78 -77 -69 vvcurveto
          -168 175 -112 168 270 145 228 287 113 vhcurveto
          219 47 219 156 100 242 -89 callsubr
          -91 -138 -175 -123 -152 -21 78 230 74 238 110 174 -32 26 -68 7 -55 -63 rrcurveto
          13 -23 -35 7 -48 -28 callsubr
          -160 39 callsubr
          139 151 100 80 70 67 hvcurveto
          -172 -96 -103 -134 -103 hhcurveto
          -68 -134 52 47 -38 hvcurveto
          398 374 -24 callsubr
          180 223 174 339 7 hvcurveto
          -12 -21 -13 -23 -13 -25 rrcurveto
          -175 -120 -168 -233 -139 hhcurveto
          endchar
        </CharString>
        <CharString name="germandbls">
          41 8 -19 rmoveto
          -144 97 -53 151 6 vhcurveto
          295 73 293 1178 291 hhcurveto
          70 45 -55 -70 hvcurveto
          -174 -384 -41 -251 -113 92 -113 -61 vvcurveto
          -26 -8 -19 -34 -37 -81 25 20 -31 vhcurveto
          -35 -52 -55 -98 -53 vvcurveto
          -107 120 -75 133 229 184 142 197 vhcurveto
          211 -244 68 110 123 301 39 233 vvcurveto
          142 -107 113 -142 -381 -540 -1038 -359 vhcurveto
          endchar
        </CharString>
        <CharString name="grave">
          79 850 1041 -66 callsubr
        </CharString>
        <CharString name="grave.cap">
          479 811 1749 -63 callsubr
        </CharString>
        <CharString name="greater">
          -36 37 200 rmoveto
          -58 22 83 -120 70 hhcurveto
          100 674 420 134 143 -470 391 -80 -29 -39 -33 -19 -14 hvcurveto
          0 365 -348 -75 vvcurveto
          -59 -614 -346 -68 -30 vhcurveto
          endchar
        </CharString>
        <CharString name="guillemotleft">
          362 450 440 rmoveto
          -129 203 -245 88 31 113 98 32 5 vhcurveto
          -24 16 -174 175 -4 85 -2 47 339 250 50 16 rrcurveto
          25 -5 -40 42 -28 hhcurveto
          -82 -470 -300 -112 hvcurveto
          418 11 rmoveto
          -78 170 -216 70 31 96 76 43 26 vhcurveto
          -24 23 -139 113 -2 56 -2 33 280 201 69 40 rrcurveto
          25 -4 -35 42 -28 hhcurveto
          -54 -454 -270 -88 hvcurveto
          endchar
        </CharString>
        <CharString name="guillemotright">
          362 705 200 rmoveto
          -40 14 110 -92 60 hhcurveto
          68 344 379 91 87 -281 198 -64 -28 -32 -31 -25 -19 hvcurveto
          34 -31 170 -131 -49 vvcurveto
          -39 -300 -272 -76 -45 vhcurveto
          -391 92 rmoveto
          -31 4 112 -101 32 hhcurveto
          47 382 327 71 66 -236 184 -44 -28 -41 -31 -25 -18 hvcurveto
          48 -40 112 -104 -32 vvcurveto
          -32 -313 -215 -57 -37 vhcurveto
          endchar
        </CharString>
        <CharString name="guilsinglleft">
          -36 406 437 rmoveto
          -160 235 -179 161 39 95 185 40 6 vhcurveto
          0 -218 99 106 vvcurveto
          59 259 146 62 20 vhcurveto
          52 -18 -33 46 -44 hhcurveto
          -124 -420 -277 -137 hvcurveto
          endchar
        </CharString>
        <CharString name="guilsinglright">
          -36 315 307 rmoveto
          -68 24 77 -143 42 hhcurveto
          138 350 201 181 141 -274 232 -97 -23 -54 -58 -43 -6 hvcurveto
          0 184 -128 -73 vvcurveto
          -94 -299 -128 -62 -20 vhcurveto
          endchar
        </CharString>
        <CharString name="h">
          103 66 callsubr
          -174 77 -75 141 52 35 12 28 vhcurveto
          5 100 18 104 26 103 rrcurveto
          144 102 285 164 -23 callsubr
          -200 -273 -132 -145 -159 hvcurveto
          26 73 29 71 30 67 rrcurveto
          236 82 300 219 157 vvcurveto
          98 -72 73 -67 -196 -704 -745 -402 vhcurveto
          559 634 rmoveto
          217 111 115 150 46 hhcurveto
          27 16 -41 -40 -81 -144 -128 -171 -77 hvcurveto
          endchar
        </CharString>
        <CharString name="hbar">
          103 66 callsubr
          -180 58 -69 180 9 callsubr
          5 101 19 104 26 104 rrcurveto
          144 103 283 162 -23 callsubr
          -199 -271 -131 -144 -159 hvcurveto
          42 117 49 111 51 97 162 15 140 23 52 24 42 20 5 66 -14 21 -82 -13 -109 -6 -111 -1 rrcurveto
          133 82 74 84 34 hhcurveto
          27 44 -46 -33 13 hvcurveto
          66 187 -111 160 -98 hhcurveto
          -106 -198 -153 -206 -183 hvcurveto
          -103 6 -87 9 -47 12 rrcurveto
          -112 -76 -5 -85 134 hhcurveto
          45 hlineto
          -155 -209 -119 -232 -177 vvcurveto
          endchar
        </CharString>
        <CharString name="hyphen">
          -28 542 421 rmoveto
          188 334 88 117 17 -9 11 -23 -4 hvcurveto
          -188 -29 -269 7 -174 30 rrcurveto
          -80 -49 0 -157 190 hhcurveto
          endchar
        </CharString>
        <CharString name="i">
          -451 664 1062 rmoveto
          106 167 56 13 callsubr
          -161 -97 -77 -107 26 callsubr
          hvcurveto
          -615 -833 -78 callsubr
          152 -50 callsubr
          -402 60 callsubr
          endchar
        </CharString>
        <CharString name="iacute">
          -94 callsubr
          468 811 -74 callsubr
        </CharString>
        <CharString name="icircumflex">
          -94 callsubr
          265 811 -87 callsubr
        </CharString>
        <CharString name="idieresis">
          -94 callsubr
          777 845 -82 callsubr
        </CharString>
        <CharString name="igrave">
          -94 callsubr
          592 812 -66 callsubr
        </CharString>
        <CharString name="ij">
          66 1055 1217 rmoveto
          26 callsubr
          109 97 83 79 80 -69 45 -83 -131 -79 -82 -79 vhcurveto
          -391 -155 rmoveto
          106 147 50 13 callsubr
          -149 -89 -100 -78 26 callsubr
          hvcurveto
          -615 -833 -11 callsubr
          143 125 63 84 99 vhcurveto
          -130 -251 -120 -222 -54 -43 -14 callsubr
          -57 callsubr
          -47 -84 -59 -114 -64 -124 rrcurveto
          -103 -75 -117 -90 -97 hhcurveto
          -78 -47 52 68 97 67 149 -50 callsubr
          -399 60 callsubr
          endchar
        </CharString>
        <CharString name="itilde">
          -94 callsubr
          247 886 -75 callsubr
        </CharString>
        <CharString name="j">
          -602 486 1062 rmoveto
          106 155 68 94 79 -55 69 -106 -161 -86 -77 -107 -80 67 -46 80 hvcurveto
          -307 -1053 -65 callsubr
          endchar
        </CharString>
        <CharString name="jcircumflex">
          -602 179 9 -65 callsubr
          5 1031 -87 callsubr
        </CharString>
        <CharString name="k">
          -67 callsubr
          endchar
        </CharString>
        <CharString name="kcommaaccent">
          -67 callsubr
          278 -359 -58 callsubr
        </CharString>
        <CharString name="kgreenlandic">
          -97 470 436 rmoveto
          -36 callsubr
          -37 58 85 -29 hvcurveto
          182 98 123 160 103 vvcurveto
          35 -27 33 -43 -3 vhcurveto
          -18 -1 -77 -7 -10 -11 rrcurveto
          -224 -284 -121 -138 -86 vhcurveto
          -420 -177 0 callsubr
          5 310 104 278 108 226 28 callsubr
        </CharString>
        <CharString name="l">
          -311 385 11 callsubr
          -107 -64 28 155 -14 hvcurveto
          226 136 314 289 278 vvcurveto
          107 -30 80 -81 -213 -591 -557 -451 -234 87 -148 248 vhcurveto
          40 621 rmoveto
          279 25 214 327 119 hhcurveto
          27 15 -51 -40 -154 -179 -221 -221 -140 hvcurveto
          endchar
        </CharString>
        <CharString name="ldot">
          -211 50 411 rmoveto
          -255 135 -176 300 329 227 270 210 87 -8 callsubr
          -106 -152 -77 -125 hhcurveto
          -170 -113 60 201 -4 hvcurveto
          231 178 347 347 216 vvcurveto
          69 -29 73 -65 -246 -611 -674 -356 vhcurveto
          394 306 rmoveto
          240 62 182 294 130 hhcurveto
          22 3 -34 -12 -100 -200 -233 -199 -155 hvcurveto
          189 -135 rmoveto
          -61 60 -41 61 72 98 93 64 56 -85 49 -36 -55 -115 -92 -68 vhcurveto
          endchar
        </CharString>
        <CharString name="less">
          -36 124 531 rmoveto
          -147 435 -362 148 39 105 124 40 6 vhcurveto
          0 -435 300 -4 76 vhcurveto
          -3 59 566 380 68 30 rrcurveto
          22 -10 -42 57 -28 hhcurveto
          -93 -752 -445 -134 hvcurveto
          endchar
        </CharString>
        <CharString name="logicalnot">
          315 474 463 rmoveto
          65 310 6 8 81 hvcurveto
          -16 -83 -80 -206 -39 -94 43 -13 81 -3 33 37 rrcurveto
          69 78 145 312 149 vvcurveto
          -171 -6 -531 -22 -158 43 48 callsubr
        </CharString>
        <CharString name="lslash">
          -371 325 11 callsubr
          -84 -43 67 146 231 127 237 134 180 hvcurveto
          261 33 268 26 73 vvcurveto
          23 -5 21 -8 21 vhcurveto
          -69 -24 -158 -14 -171 -16 35 39 33 33 28 26 -49 59 -68 0 -67 -64 -34 -33 -38 -38 -41 -42 rrcurveto
          -222 -26 -196 -38 -80 vvcurveto
          -22 15 -35 20 -29 vhcurveto
          42 33 90 24 111 19 rrcurveto
          -205 -237 -206 -303 -257 vvcurveto
          -205 113 -145 162 vhcurveto
          endchar
        </CharString>
        <CharString name="m">
          626 50 259 rmoveto
          -186 151 -73 62 callsubr
          126 18 123 29 116 rrcurveto
          144 98 256 158 100 hhcurveto
          26 -263 -245 -241 -186 131 -41 111 32 43 12 28 hvcurveto
          -16 84 57 155 59 155 rrcurveto
          135 93 169 137 95 hhcurveto
          63 -295 41 callsubr
          163 31 callsubr
          -84 45 callsubr
          310 354 -235 -176 -193 -102 -123 -134 hvcurveto
          129 39 8 96 -85 hhcurveto
          -200 -263 -131 -143 -155 hvcurveto
          32 89 36 84 37 77 28 callsubr
        </CharString>
        <CharString name="macron">
          79 546 1179 rmoveto
          224 223 23 40 callsubr
          -380 63 callsubr
          27 -73 174 hhcurveto
          endchar
        </CharString>
        <CharString name="minus">
          315 544 463 -35 callsubr
          endchar
        </CharString>
        <CharString name="mu">
          373 5 -213 rmoveto
          -187 208 19 89 10 vhcurveto
          137 7 130 11 111 vhcurveto
          -5 23 23 -2 26 hhcurveto
          107 125 64 60 82 hvcurveto
          -98 callsubr
          -27 33 -28 hhcurveto
          -221 -385 -472 -625 hvcurveto
          endchar
        </CharString>
        <CharString name="multiply">
          315 184 293 rmoveto
          -1 -23 62 -53 54 20 50 19 166 89 172 101 83 -112 89 -96 39 -20 33 -18 45 27 40 47 -57 53 -67 99 -61 107 132 82 118 80 49 50 68 70 -32 61 -76 60 rrcurveto
          -67 -79 -123 -98 -138 -98 -59 116 -45 107 -13 52 rrcurveto
          -93 -31 -44 -33 -70 vvcurveto
          -59 43 -91 59 -94 vhcurveto
          -157 -103 -159 -97 -110 -65 rrcurveto
          endchar
        </CharString>
        <CharString name="n">
          61 50 -79 callsubr
          endchar
        </CharString>
        <CharString name="nacute">
          61 10 -79 callsubr
          757 793 -74 callsubr
        </CharString>
        <CharString name="nbspace">
          -385 endchar
        </CharString>
        <CharString name="nine">
          84 185 -48 rmoveto
          638 346 582 420 257 -118 166 -248 -306 -232 -313 -237 -145 87 -117 208 81 88 22 40 82 hvcurveto
          -176 -208 -297 -179 -391 3 rrcurveto
          55 callsubr
          452 852 rmoveto
          -125 -50 59 76 132 151 180 170 143 67 -91 -122 -37 -6 -41 -12 -42 hvcurveto
          -59 -77 -144 -55 -117 hhcurveto
          endchar
        </CharString>
        <CharString name="ntilde">
          61 10 -79 callsubr
          495 868 -75 callsubr
        </CharString>
        <CharString name="numbersign">
          586 230 34 rmoveto
          -16 43 75 -22 67 hhcurveto
          33 83 162 213 91 hvcurveto
          101 -1 111 2 110 5 -71 -161 -62 -130 -31 -52 rrcurveto
          -24 57 55 -14 73 hhcurveto
          34 77 171 223 83 hvcurveto
          153 12 127 17 51 19 17 6 0 93 -1 25 -57 -8 -107 -5 -127 -3 33 94 32 97 29 94 136 12 110 15 48 18 17 6 0 77 -1 25 -55 -8 -96 -5 -116 -2 rrcurveto
          55 188 39 44 callsubr
          -73 -65 -175 -81 -203 rrcurveto
          -112 -119 1 3 -111 hvcurveto
          64 187 45 44 callsubr
          -71 -70 -172 -89 -199 -121 5 -99 7 -52 10 -9 -38 -8 -63 14 -38 8 -23 79 -15 115 -6 -40 -87 -41 -87 -41 -85 -100 5 -81 7 -44 8 -9 -38 -8 -79 14 -38 rrcurveto
          6 -19 54 -13 83 -7 -83 -166 -71 -133 -32 -48 rrcurveto
          465 514 rmoveto
          35 86 33 89 32 86 rrcurveto
          107 118 3 6 114 hvcurveto
          -116 -274 rlineto
          -107 -112 2 2 -104 hvcurveto
          endchar
        </CharString>
        <CharString name="o">
          -102 callsubr
          endchar
        </CharString>
        <CharString name="oacute">
          -102 callsubr
          195 723 -74 callsubr
        </CharString>
        <CharString name="ocircumflex">
          -102 callsubr
          -21 723 -87 callsubr
        </CharString>
        <CharString name="odieresis">
          -102 callsubr
          475 757 -82 callsubr
        </CharString>
        <CharString name="oe">
          417 -33 callsubr
          100 -116 219 140 123 38 63 100 vhcurveto
          -85 78 126 -39 151 -17 callsubr
          -134 -165 -52 -83 -141 vhcurveto
          -73 101 -149 61 -176 -21 -36 -5 -9 -43 2 -33 rrcurveto
          -255 -75 -218 -233 -238 vvcurveto
          970 12 callsubr
          -551 -169 -24 callsubr
          164 92 142 184 36 hvcurveto
          -102 192 -210 -356 -161 hhcurveto
          endchar
        </CharString>
        <CharString name="ograve">
          -102 callsubr
          377 724 -66 callsubr
        </CharString>
        <CharString name="one">
          -207 110 205 rmoveto
          -205 189 -48 210 19 vhcurveto
          12 608 534 528 173 vvcurveto
          43 -62 53 -43 8 vhcurveto
          -238 -135 -405 -158 -101 -31 rrcurveto
          -40 11 33 -70 49 hhcurveto
          89 358 172 124 176 hvcurveto
          -181 -298 -631 -474 -269 vvcurveto
          endchar
        </CharString>
        <CharString name="onehalf">
          921 413 896 -55 callsubr
          696 -1253 -49 callsubr
          -1069 147 -53 callsubr
          endchar
        </CharString>
        <CharString name="onequarter">
          945 964 -59 callsubr
          -765 849 -55 callsubr
          -373 -1106 -53 callsubr
          endchar
        </CharString>
        <CharString name="onesuperior">
          -337 304 896 -55 callsubr
          endchar
        </CharString>
        <CharString name="ordfeminine">
          -275 417 990 rmoveto
          94 68 52 38 39 hvcurveto
          -57 -3 63 -33 67 hhcurveto
          116 133 124 63 41 hvcurveto
          18 27 -25 16 -21 -1 rrcurveto
          -25 -32 -49 -32 -45 hhcurveto
          -96 134 252 34 14 hvcurveto
          0 -88 17 -24 -27 vhcurveto
          -15 -17 rlineto
          13 -12 -18 10 -29 hhcurveto
          -230 -264 -116 -193 -80 63 -65 101 hvcurveto
          86 174 rmoveto
          -29 -11 21 32 67 116 78 183 6 hvcurveto
          -87 -73 -101 -117 -85 hhcurveto
          endchar
        </CharString>
        <CharString name="ordmasculine">
          -357 474 987 rmoveto
          239 188 139 178 97 -135 88 -146 -23 hvcurveto
          -15 -3 -14 -23 -6 -23 rrcurveto
          -157 -40 -145 -123 -119 vvcurveto
          -80 60 -68 131 vhcurveto
          64 178 rmoveto
          -25 -17 19 32 70 61 55 101 23 hvcurveto
          32 -11 13 -20 -26 vvcurveto
          -57 -74 -85 -91 vhcurveto
          endchar
        </CharString>
        <CharString name="oslash">
          -81 -47 -72 rmoveto
          -44 25 101 -79 44 hhcurveto
          36 77 124 70 49 hvcurveto
          -5 33 32 0 32 -72 callsubr
          88 -42 77 -69 54 vhcurveto
          53 78 55 74 22 vvcurveto
          18 -64 44 -24 7 vhcurveto
          -28 -40 -83 -83 -38 -56 -63 17 -70 3 -74 -14 -48 callsubr
          -74 21 -65 45 -48 vhcurveto
          -57 -57 -58 -63 -36 -35 rrcurveto
          504 389 -64 callsubr
          endchar
        </CharString>
        <CharString name="otilde">
          -102 callsubr
          -3 798 -75 callsubr
        </CharString>
        <CharString name="p">
          15 -177 -254 rmoveto
          -186 118 -59 3 callsubr
          3 184 149 397 138 325 rrcurveto
          129 108 201 124 90 hhcurveto
          128 -420 41 callsubr
          223 31 callsubr
          -144 45 callsubr
          420 354 -265 -174 -222 -99 -121 -157 hvcurveto
          35 79 32 68 23 49 -20 29 -65 5 -40 -19 rrcurveto
          -224 -110 -424 -781 -242 vvcurveto
          endchar
        </CharString>
        <CharString name="paragraph">
          619 474 50 callsubr
          108 400 1095 478 133 hvcurveto
          47 -15 47 -16 48 -16 -155 -495 -317 -909 -130 -113 rrcurveto
          -33 24 92 -45 41 hhcurveto
          103 322 1034 526 131 hvcurveto
          -34 114 117 -27 122 hhcurveto
          79 5 135 0 hvcurveto
          -145 -10 -136 20 -129 29 rrcurveto
          19 83 11 61 27 vvcurveto
          65 callsubr
          vhcurveto
          -7 -33 -19 -68 -27 -89 -51 13 -50 15 -48 13 rrcurveto
          12 48 6 35 20 vvcurveto
          65 callsubr
          vhcurveto
          -6 -25 -13 -43 -19 -54 rrcurveto
          22 -86 -82 15 -78 hhcurveto
          -410 -267 -426 -305 -179 89 -143 200 98 87 39 69 80 hvcurveto
          -151 -337 -151 -303 -73 -64 rrcurveto
          218 972 rmoveto
          -119 -37 81 98 168 147 225 307 63 65 -11 -16 66 hvcurveto
          -15 -41 rlineto
          -273 -143 -182 -231 -152 hhcurveto
          endchar
        </CharString>
        <CharString name="parenleft">
          -69 200 -17 rmoveto
          -141 67 -75 57 63 88 37 33 36 vhcurveto
          541 -152 653 1104 520 hhcurveto
          42 -3 -20 59 -48 hhcurveto
          -473 -788 -970 -630 hvcurveto
          endchar
        </CharString>
        <CharString name="parenright">
          46 15 -116 rmoveto
          -42 3 71 -135 92 hhcurveto
          541 497 1322 526 -239 hvcurveto
          -16 35 -63 -10 -37 -19 192 -481 -504 -1080 -537 -116 rrcurveto
          endchar
        </CharString>
        <CharString name="percent">
          612 105 49 rmoveto
          -32 10 85 -85 29 hhcurveto
          155 1065 1241 147 13 -59 50 -17 5 hvcurveto
          -277 -407 -793 -791 -198 -141 rrcurveto
          383 733 rmoveto
          194 177 144 218 121 -118 107 -138 -24 hvcurveto
          -11 -2 -10 -9 -6 -12 rrcurveto
          -159 -36 -133 -154 -154 vvcurveto
          -112 80 -87 124 vhcurveto
          51 190 rmoveto
          -41 -22 26 49 92 66 80 108 33 hvcurveto
          -63 127 -131 -217 -107 hhcurveto
          366 -794 rmoveto
          -146 93 -84 156 238 184 183 214 183 -119 114 -187 -25 vhcurveto
          -14 -2 -11 -16 -7 -20 rrcurveto
          -187 -52 -146 -195 -154 vvcurveto
          233 89 rmoveto
          115 100 78 99 12 vhcurveto
          -84 98 -118 -203 -110 hhcurveto
          -45 -24 28 54 hvcurveto
          endchar
        </CharString>
        <CharString name="period">
          -293 180 39 rmoveto
          -45 callsubr
          endchar
        </CharString>
        <CharString name="periodcentered">
          -264 375 508 -34 callsubr
          endchar
        </CharString>
        <CharString name="plus">
          315 514 108 rmoveto
          19 -14 93 4 26 42 25 41 65 142 61 155 137 12 124 18 65 25 42 16 19 55 -13 53 -78 -12 -115 -8 -123 -4 rrcurveto
          40 114 29 103 58 vvcurveto
          86 -64 24 -110 -4 vhcurveto
          6 -60 -38 -154 -49 -169 -162 1 -148 9 -61 18 rrcurveto
          52 callsubr
          31 -72 174 hhcurveto
          47 52 1 2 53 hvcurveto
          -43 -140 -44 -134 -25 -84 rrcurveto
          endchar
        </CharString>
        <CharString name="plusminus">
          315 588 324 rmoveto
          19 -14 87 8 32 38 31 36 53 116 46 127 139 11 127 18 67 29 67 callsubr
          63 -13 53 -81 -13 -121 -8 -127 -3 rrcurveto
          22 77 14 71 48 vvcurveto
          86 -50 13 -110 -4 vhcurveto
          -42 -24 -118 -33 -133 vhcurveto
          -159 2 -144 9 -60 17 58 callsubr
          46 51 0 2 52 hvcurveto
          -35 -127 -36 -117 -24 -57 rrcurveto
          -399 -137 rmoveto
          -2 callsubr
          -39 callsubr
          endchar
        </CharString>
        <CharString name="q">
          -22 -33 callsubr
          39 callsubr
          139 81 68 32 42 56 vhcurveto
          -63 -132 -41 -120 -83 vvcurveto
          -146 77 -92 146 9 callsubr
          2 112 45 175 65 188 217 49 215 156 99 239 -89 callsubr
          -89 -135 -168 -120 -149 -26 104 261 122 245 76 103 -20 29 -70 13 -35 -27 -15 -11 -16 -14 -17 -17 rrcurveto
          31 -16 -48 18 -76 -54 callsubr
          185 245 180 357 -4 hvcurveto
          -32 -35 -35 -42 -36 -46 rrcurveto
          -142 -124 -148 -212 -130 hhcurveto
          endchar
        </CharString>
        <CharString name="question">
          9 330 563 rmoveto
          -109 113 -77 137 116 146 47 89 75 vhcurveto
          14 17 -13 27 -19 4 rrcurveto
          -98 -82 -83 62 76 145 662 314 291 vvcurveto
          158 -129 75 -159 -316 -440 -247 -225 -96 53 -39 98 92 102 75 28 12 -4 16 -8 14 vhcurveto
          -80 -42 -76 -16 106 vvcurveto
          168 348 150 225 89 59 -47 -79 vhcurveto
          -314 -904 -114 -387 vvcurveto
          -150 -524 15 callsubr
        </CharString>
        <CharString name="questiondown">
          9 602 787 rmoveto
          46 callsubr
          54 callsubr
          vhcurveto
          -327 -1056 rmoveto
          186 668 199 265 vvcurveto
          99 -82 70 -125 -74 -98 -33 -53 -51 vhcurveto
          -15 -16 14 -28 19 -4 rrcurveto
          33 46 74 22 53 hhcurveto
          54 34 -29 -54 hvcurveto
          -271 -902 -89 -477 vvcurveto
          -142 137 -110 235 vhcurveto
          639 141 611 -309 hhcurveto
          -63 -87 -15 -71 41 hvcurveto
          45 11 35 5 -48 vvcurveto
          -57 -143 -118 -168 -65 -53 39 75 vhcurveto
          endchar
        </CharString>
        <CharString name="quotedbl">
          -58 800 1014 rmoveto
          -13 13 37 -19 13 hhcurveto
          -3 callsubr
          -337 -32 7 callsubr
        </CharString>
        <CharString name="quotedblbase">
          60 540 -153 rmoveto
          -38 callsubr
          -400 hmoveto
          -38 callsubr
          endchar
        </CharString>
        <CharString name="quotedblleft">
          60 1003 975 rmoveto
          -40 callsubr
          -400 hmoveto
          -40 callsubr
          endchar
        </CharString>
        <CharString name="quotedblright">
          60 835 1014 rmoveto
          -32 callsubr
          -123 -49 -49 rrcurveto
          -343 -39 -5 callsubr
        </CharString>
        <CharString name="quoteleft">
          -340 603 975 rmoveto
          -40 callsubr
          endchar
        </CharString>
        <CharString name="quoteright">
          -340 492 975 -5 callsubr
        </CharString>
        <CharString name="quotesinglbase">
          -340 193 -153 rmoveto
          -38 callsubr
          endchar
        </CharString>
        <CharString name="quotesingle">
          -458 463 982 7 callsubr
        </CharString>
        <CharString name="r">
          -83 callsubr
          endchar
        </CharString>
        <CharString name="rcaron">
          -83 callsubr
          430 752 -22 callsubr
        </CharString>
        <CharString name="rcommaaccent">
          -83 callsubr
          17 -416 -58 callsubr
        </CharString>
        <CharString name="registered">
          436 23 -41 callsubr
          151 6 rmoveto
          -128 105 -44 76 23 23 8 19 vhcurveto
          215 5 126 353 147 hhcurveto
          46 21 -27 -39 -97 -147 -71 -119 -55 hvcurveto
          -151 -13 28 -169 114 hhcurveto
          147 200 203 74 29 -27 9 0 hvcurveto
          -39 -30 -72 -52 -55 hhcurveto
          -50 -35 42 60 -20 hvcurveto
          137 73 84 89 92 vvcurveto
          71 -65 53 -105 -229 -315 -268 -250 vhcurveto
          endchar
        </CharString>
        <CharString name="ring">
          79 648 977 -18 callsubr
        </CharString>
        <CharString name="ring.cap">
          479 982 1696 -15 callsubr
        </CharString>
        <CharString name="s">
          -118 37 373 rmoveto
          -212 134 -167 212 18 18 1 1 18 vhcurveto
          445 4 242 240 96 220 25 58 -25 21 -35 -3 -79 -119 -127 -106 -139 -35 rrcurveto
          5 24 3 26 27 vvcurveto
          170 -57 171 5 130 vhcurveto
          35 4 36 0 36 -2 rrcurveto
          65 39 -38 47 -76 hhcurveto
          -215 -282 -170 -200 -133 hvcurveto
          -77 -48 -84 -80 -67 vvcurveto
          406 -29 rmoveto
          -55 -65 96 121 -29 hvcurveto
          78 95 135 94 154 47 rrcurveto
          -183 -37 -50 -270 -131 hhcurveto
          endchar
        </CharString>
        <CharString name="section">
          437 172 421 rmoveto
          -235 166 -182 251 249 179 147 165 33 vhcurveto
          131 49 69 105 118 206 -344 180 119 vvcurveto
          123 120 44 106 104 101 -62 -68 26 vhcurveto
          50 19 77 39 60 vvcurveto
          79 -138 49 -132 -219 -237 -119 -170 vhcurveto
          -11 vlineto
          -97 -38 -84 -89 -93 -138 205 -142 -135 vvcurveto
          -73 -84 -55 -90 -172 -154 111 129 -39 vhcurveto
          -22 -6 -45 -21 -3 -18 rrcurveto
          -5 -30 -2 -29 -28 vvcurveto
          808 172 rmoveto
          -96 134 -155 81 85 vvcurveto
          34 26 37 42 24 vhcurveto
          72 -118 163 -122 -88 vvcurveto
          -32 -22 -20 -30 -15 vhcurveto
          endchar
        </CharString>
        <CharString name="semicolon">
          10 callsubr
          -191 -517 -10 callsubr
        </CharString>
        <CharString name="seven">
          -68 83 176 rmoveto
          -164 145 -39 272 38 vhcurveto
          -43 254 258 669 633 234 rrcurveto
          0 5 128 -28 11 vhcurveto
          50 -132 -438 12 -104 hhcurveto
          -191 -163 -45 -73 -73 56 -36 33 -13 hvcurveto
          48 171 762 -79 0 vvcurveto
          -513 -171 -600 -492 -382 vvcurveto
          endchar
        </CharString>
        <CharString name="six">
          122 126 42 callsubr
          -151 268 330 250 253 253 289 -235 122 -377 -156 vhcurveto
          254 95 228 264 245 hhcurveto
          113 56 -70 -39 28 hvcurveto
          36 36 44 49 -23 41 rrcurveto
          46 -26 -98 48 -108 hhcurveto
          -466 -492 -583 -408 hvcurveto
          322 136 rmoveto
          24 2 26 4 27 vhcurveto
          236 104 202 -31 -144 vvcurveto
          -108 -95 -104 -132 -142 -75 100 106 vhcurveto
          endchar
        </CharString>
        <CharString name="slash">
          30 14 -121 rmoveto
          -33 24 104 -54 41 hhcurveto
          121 1039 1661 117 18 -53 18 -24 7 hvcurveto
          -101 -185 -909 -1337 -242 -212 rrcurveto
          endchar
        </CharString>
        <CharString name="space">
          -385 endchar
        </CharString>
        <CharString name="sterling">
          339 131 117 rmoveto
          64 41 13 12 48 hvcurveto
          -22 263 156 -174 285 hhcurveto
          207 127 160 184 31 -30 24 -40 10 hvcurveto
          -61 -30 -87 -40 -94 hhcurveto
          -121 -229 36 42 -137 hvcurveto
          84 47 55 91 43 106 rrcurveto
          -39 101 107 -32 124 hhcurveto
          83 36 88 87 -7 hvcurveto
          -96 -19 -148 28 -149 38 rrcurveto
          267 80 50 293 216 hhcurveto
          99 63 -58 -96 -86 -76 -82 -78 -25 hvcurveto
          -49 16 42 -59 56 hhcurveto
          116 69 131 148 177 -120 109 -161 -333 -116 -315 -292 -154 hvcurveto
          26 -95 -82 20 -49 hhcurveto
          -98 -18 -32 -84 -11 hvcurveto
          105 6 94 -22 90 -31 -64 -106 -75 -97 -99 -68 rrcurveto
          25 callsubr
          -57 -74 -97 -76 63 -45 69 1 hvcurveto
          endchar
        </CharString>
        <CharString name="t">
          -294 77 270 rmoveto
          -196 123 -75 196 360 227 311 -16 callsubr
          -170 hhcurveto
          -146 -56 61 89 76 40 98 59 100 hvcurveto
          -26 112 111 -21 60 hhcurveto
          25 23 49 58 14 hvcurveto
          -43 3 -114 19 -123 21 83 120 99 113 71 70 rrcurveto
          26 -20 -48 25 -23 hhcurveto
          -61 -158 -139 -180 -148 hvcurveto
          -151 25 -12 -24 -12 -52 24 -8 rlinecurve
          22 -8 29 -8 33 -10 rrcurveto
          -137 -180 -114 -203 -141 vvcurveto
          endchar
        </CharString>
        <CharString name="thorn">
          15 252 45 rmoveto
          -34 53 68 -18 77 hhcurveto
          8 hlineto
          452 326 154 313 130 hvcurveto
          -89 callsubr
          -84 -129 -121 -86 -122 -19 rrcurveto
          60 88 36 100 103 vvcurveto
          186 -92 108 -186 -86 -87 -30 -47 -78 vhcurveto
          102 217 140 221 61 94 -33 51 -85 1 -39 -45 rrcurveto
          -248 -289 -647 -938 -399 vvcurveto
          -186 112 -75 62 callsubr
          123 60 205 78 215 rrcurveto
          201 379 rmoveto
          50 12 60 21 65 vhcurveto
          101 86 136 71 96 hhcurveto
          66 42 -44 -62 -158 -205 47 callsubr
        </CharString>
        <CharString name="three">
          147 -10 180 rmoveto
          55 callsubr
          836 273 573 267 -322 hvcurveto
          160 112 122 146 137 vvcurveto
          161 -109 92 -228 -317 -413 -228 -149 -60 55 -56 44 20 25 23 15 11 vhcurveto
          127 -34 300 211 261 hhcurveto
          83 102 -28 -97 -236 -502 -126 -178 -23 hvcurveto
          -40 29 -169 67 88 105 27 46 104 vhcurveto
          102 -273 -487 -184 -435 23 rrcurveto
          endchar
        </CharString>
        <CharString name="threequarters">
          1045 1064 -59 callsubr
          -1138 -257 -53 callsubr
          249 888 -51 callsubr
        </CharString>
        <CharString name="threesuperior">
          -100 410 678 -51 callsubr
        </CharString>
        <CharString name="tilde">
          79 398 1115 -75 callsubr
        </CharString>
        <CharString name="tilde.cap">
          479 688 1662 -69 callsubr
        </CharString>
        <CharString name="trademark">
          498 486 1017 rmoveto
          117 461 196 110 -509 -110 196 hlineto
          353 -461 rmoveto
          114 hlineto
          28 355 158 -178 rlineto
          29 hlineto
          166 183 30 -360 rlineto
          115 hlineto
          -48 570 rlineto
          -55 hlineto
          -219 -251 -220 251 rlineto
          -53 hlineto
          endchar
        </CharString>
        <CharString name="two">
          212 134 -27 rmoveto
          327 102 471 31 213 -71 78 100 13 120 -131 44 rrcurveto
          -216 73 -340 -38 0 0 819 362 414 vvcurveto
          140 -100 127 -228 -307 -446 -206 -190 -80 137 -41 56 20 36 32 57 callsubr
          91 263 156 242 83 102 -28 -97 -355 -1048 -343 -127 -148 vhcurveto
          -72 -84 40 -283 164 51 rrcurveto
          endchar
        </CharString>
        <CharString name="twosuperior">
          -61 378 743 -49 callsubr
          endchar
        </CharString>
        <CharString name="u">
          38 callsubr
          -168 106 -102 168 107 125 64 60 82 vhcurveto
          -98 callsubr
          -36 33 -28 hhcurveto
          -131 -353 -305 -309 hvcurveto
          endchar
        </CharString>
        <CharString name="uacute">
          38 callsubr
          -168 106 -102 168 107 125 64 60 82 vhcurveto
          -98 callsubr
          -36 33 -28 hhcurveto
          -131 -353 -305 -309 hvcurveto
          752 770 -74 callsubr
        </CharString>
        <CharString name="ucircumflex">
          38 callsubr
          -168 106 -102 168 107 125 64 60 82 vhcurveto
          -98 callsubr
          -36 33 -28 hhcurveto
          -131 -353 -305 -309 hvcurveto
          526 770 -87 callsubr
        </CharString>
        <CharString name="udieresis">
          38 callsubr
          -168 106 -102 168 107 125 64 60 82 vhcurveto
          -98 callsubr
          -36 33 -28 hhcurveto
          -131 -353 -305 -309 hvcurveto
          1000 804 -82 callsubr
        </CharString>
        <CharString name="ugrave">
          38 callsubr
          -168 106 -102 168 107 125 64 60 82 vhcurveto
          -98 callsubr
          -36 33 -28 hhcurveto
          -131 -353 -305 -309 hvcurveto
          804 771 -66 callsubr
        </CharString>
        <CharString name="underscore">
          158 -38 hmoveto
          1278 hlineto
          38 124 rlineto
          -1278 hlineto
          endchar
        </CharString>
        <CharString name="uni0001">
          endchar
        </CharString>
        <CharString name="uni0002">
          endchar
        </CharString>
        <CharString name="uni0003">
          endchar
        </CharString>
        <CharString name="uni0004">
          endchar
        </CharString>
        <CharString name="uni0005">
          endchar
        </CharString>
        <CharString name="uni0006">
          endchar
        </CharString>
        <CharString name="uni0007">
          endchar
        </CharString>
        <CharString name="uni0008">
          endchar
        </CharString>
        <CharString name="uni0015">
          endchar
        </CharString>
        <CharString name="uni0016">
          endchar
        </CharString>
        <CharString name="uni0017">
          endchar
        </CharString>
        <CharString name="uni0018">
          endchar
        </CharString>
        <CharString name="uni0019">
          endchar
        </CharString>
        <CharString name="uni00AD">
          586 endchar
        </CharString>
        <CharString name="v">
          116 194 82 rmoveto
          -73 40 -45 109 130 204 117 152 167 vhcurveto
          -69 63 96 -42 109 14 callsubr
          -39 -47 63 66 -37 hvcurveto
          45 73 27 71 63 vvcurveto
          113 -31 121 -69 -78 -86 -86 -44 -23 vhcurveto
          -24 -46 -54 -221 -75 vvcurveto
          -26 3 -25 6 -24 vhcurveto
          -72 -86 -85 -49 -51 -44 193 603 -173 hhcurveto
          -126 -164 -229 -208 -128 hvcurveto
          -40 -66 32 -42 35 3 rrcurveto
          40 28 59 78 11 hhcurveto
          4 -105 -41 -122 -120 vvcurveto
          endchar
        </CharString>
        <CharString name="w">
          552 298 -23 rmoveto
          130 171 120 153 146 hvcurveto
          -141 24 60 -132 125 hhcurveto
          119 136 98 133 109 hvcurveto
          -54 55 78 -32 97 14 callsubr
          -42 -52 49 72 -41 hvcurveto
          34 79 20 79 69 vvcurveto
          113 -11 98 -69 -78 -72 -92 -44 -23 vhcurveto
          -24 -46 -24 -211 -75 vvcurveto
          -10 0 -9 1 -9 vhcurveto
          -55 -55 -57 -39 -42 hhcurveto
          -51 -43 99 127 -16 hvcurveto
          49 87 30 80 60 vvcurveto
          42 -37 69 -42 -36 -76 -41 -29 -30 vhcurveto
          -36 -36 -42 -210 -12 -110 rrcurveto
          -86 -94 -96 -52 -54 hhcurveto
          -43 -11 61 56 104 38 195 103 128 hvcurveto
          -53 34 -36 -1 -46 -34 rrcurveto
          -139 -104 -201 -253 -200 vvcurveto
          -141 70 -185 124 vhcurveto
          endchar
        </CharString>
        <CharString name="x">
          78 65 230 rmoveto
          -111 57 -118 155 136 108 111 142 107 vhcurveto
          -149 33 50 -105 129 hhcurveto
          247 241 241 219 89 hvcurveto
          -88 callsubr
          -132 -87 -151 -87 -109 hhcurveto
          -95 -73 81 102 -59 hvcurveto
          31 40 32 40 33 37 193 3 120 73 9 31 15 52 -14 134 -69 13 rrcurveto
          -2 -2 1 -2 hhcurveto
          -5 hlineto
          -2 -2 0 -1 -2 hvcurveto
          -120 -8 -144 -141 -135 -144 rrcurveto
          134 -60 -45 125 -44 hhcurveto
          -36 -52 -14 -10 -23 hvcurveto
          59 -124 27 -141 22 -132 rrcurveto
          -85 -83 -72 -62 -52 hhcurveto
          -64 -39 164 142 8 hvcurveto
          -47 -5 -37 -15 -30 -37 rrcurveto
          -27 -33 -82 -109 -198 vvcurveto
          endchar
        </CharString>
        <CharString name="y">
          -86 callsubr
          endchar
        </CharString>
        <CharString name="yacute">
          -86 callsubr
          733 1068 -74 callsubr
        </CharString>
        <CharString name="ydieresis">
          -86 callsubr
          1051 1102 -82 callsubr
        </CharString>
        <CharString name="yen">
          284 303 82 rmoveto
          -127 180 -33 140 49 vhcurveto
          138 44 152 81 158 vhcurveto
          135 10 131 20 100 35 42 15 21 52 -13 53 -80 -12 -118 -8 -125 -4 21 33 23 34 24 33 121 12 109 19 59 26 67 callsubr
          37 -13 53 -59 -9 -80 -7 -89 -4 rrcurveto
          166 200 208 201 237 187 -11 39 -67 10 -33 -18 -180 -97 -267 -204 -238 -233 rrcurveto
          262 18 -49 206 -229 hhcurveto
          -184 -208 -195 -46 137 hvcurveto
          53 44 83 64 79 hhcurveto
          106 23 -198 -234 -46 hvcurveto
          -105 4 -86 8 -43 13 rrcurveto
          52 callsubr
          29 -60 174 hhcurveto
          24 hlineto
          -8 -27 -10 -27 -10 -26 rrcurveto
          -1 -1 -1 0 vhcurveto
          -110 4 -92 8 -45 13 -32 -114 22 -71 139 -10 rrcurveto
          -73 -120 -44 -113 -96 vvcurveto
          endchar
        </CharString>
        <CharString name="z">
          -203 118 hmoveto
          36 80 45 70 95 hvcurveto
          -61 76 91 -54 103 hhcurveto
          248 227 310 4 callsubr
          hvcurveto
          24 58 -23 21 -36 -3 rrcurveto
          -113 -74 -128 -106 -105 hhcurveto
          -49 -60 18 26 -63 hvcurveto
          169 160 144 171 87 vvcurveto
          26 -8 46 -16 7 vhcurveto
          -95 42 -273 1 -175 -44 -40 -10 13 -105 15 -24 129 41 245 29 73 -19 -30 -100 -170 -118 -165 -99 rrcurveto
          49 -93 -79 44 -33 hhcurveto
          -114 -119 -185 -164 -92 36 -104 82 hvcurveto
          endchar
        </CharString>
        <CharString name="zero">
          232 78 42 callsubr
          -145 268 531 368 557 427 252 -126 148 -215 -463 -495 -592 -399 vhcurveto
          328 136 rmoveto
          346 303 398 305 135 70 -106 -153 -314 -323 -377 -279 -135 -76 73 133 vhcurveto
          endchar
        </CharString>
</ttFont>
